<?xml version="1.0" standalone="no"?>
<!DOCTYPE svg PUBLIC "-//W3C//DTD SVG 20010904//EN"
 "http://www.w3.org/TR/2001/REC-SVG-20010904/DTD/svg10.dtd">
<svg version="1.0" xmlns="http://www.w3.org/2000/svg"
 width="1200.000000pt" height="1200.000000pt" viewBox="0 0 1200.000000 1200.000000"
 preserveAspectRatio="xMidYMid meet">

<g transform="translate(0.000000,1200.000000) scale(0.100000,-0.100000)"
fill="#000000" stroke="none">
<path d="M5444 9160 c-56 -22 -54 2 -54 -715 l0 -660 53 -1 c43 0 65 -8 126
-43 41 -24 83 -43 95 -43 11 0 55 20 96 43 59 35 84 44 122 44 l48 0 0 663 c0
414 -4 670 -10 682 -5 10 -24 23 -41 29 -38 13 -403 14 -435 1z"/>
<path d="M2466 8954 l-26 -27 0 -1517 0 -1517 26 -27 27 -26 1041 0 c847 0
1046 2 1060 13 10 7 87 132 170 276 l152 264 -14 44 c-13 40 -13 53 2 122 25
118 25 120 -49 185 -92 81 -116 137 -95 218 9 33 29 60 86 116 48 47 74 80 74
94 0 13 -7 56 -16 98 -13 62 -14 83 -4 120 24 89 109 140 235 140 55 0 84 25
114 97 21 51 21 62 21 668 0 651 -1 662 -45 679 -9 3 -186 6 -394 6 l-378 0
-21 -23 -22 -23 0 -736 c0 -523 -3 -745 -11 -769 -17 -51 -56 -97 -100 -119
-38 -20 -55 -20 -738 -18 -689 3 -700 3 -727 24 -15 11 -42 37 -58 58 l-31 38
-5 756 c-5 783 -6 790 -46 806 -8 3 -57 6 -108 6 -87 0 -95 -2 -120 -26z
m2086 -2001 c25 -23 23 -68 -4 -87 -20 -14 -129 -16 -970 -16 -935 0 -948 0
-968 20 -24 24 -25 48 -4 78 l15 22 956 0 c876 0 958 -1 975 -17z m-370 -350
c22 -20 24 -66 2 -87 -14 -14 -99 -16 -789 -16 l-774 0 -15 22 c-9 12 -16 29
-16 38 0 9 7 26 16 38 l15 22 771 0 c704 0 773 -1 790 -17z m480 0 c22 -20 23
-61 1 -85 -14 -16 -34 -18 -174 -18 -152 0 -158 1 -173 22 -21 30 -20 54 4 78
18 18 33 20 172 20 127 0 154 -3 170 -17z m-1682 -353 c24 -24 26 -57 3 -82
-14 -16 -34 -18 -189 -18 -167 0 -173 1 -188 22 -21 30 -20 54 4 78 18 18 33
20 185 20 152 0 167 -2 185 -20z m1568 4 c26 -18 29 -60 5 -86 -15 -17 -51
-18 -719 -18 -625 0 -704 2 -718 16 -21 20 -20 63 1 86 15 17 51 18 712 18
614 0 699 -2 719 -16z"/>
<path d="M2885 8955 l-25 -24 0 -736 0 -736 25 -24 24 -25 666 0 c652 0 665 0
685 20 20 20 20 33 20 763 0 734 0 743 -20 765 l-21 22 -665 0 -665 0 -24 -25z"/>
<path d="M6081 8954 c-21 -26 -21 -34 -20 -663 l0 -636 27 -55 c30 -61 39 -65
154 -75 82 -8 140 -42 168 -101 24 -48 25 -97 5 -183 -9 -35 -13 -72 -10 -82
4 -10 33 -43 66 -73 135 -122 134 -217 -3 -346 l-72 -67 17 -77 c20 -89 21
-131 6 -174 -10 -29 -2 -44 136 -284 81 -139 156 -263 168 -275 30 -34 109
-32 142 2 l25 24 0 1521 0 1521 -25 24 -24 25 -370 0 -370 0 -20 -26z"/>
<path d="M7606 8510 c-15 -5 -37 -17 -48 -27 -50 -44 -48 16 -48 -1533 l0
-1450 75 0 75 0 0 180 c0 167 1 181 20 200 25 25 62 26 83 2 15 -16 17 -45 17
-200 l0 -182 630 0 630 0 0 183 c0 165 2 186 18 200 25 23 58 21 82 -3 19 -19
20 -33 20 -200 l0 -180 35 0 c51 0 91 24 104 61 8 23 11 435 11 1438 0 1319
-1 1408 -18 1440 -9 19 -30 44 -45 55 -28 21 -37 21 -820 23 -436 1 -805 -2
-821 -7z m1183 -157 c16 -13 24 -36 31 -81 19 -137 115 -229 258 -248 87 -11
83 22 80 -559 l-3 -508 -26 -20 c-24 -17 -30 -18 -55 -5 l-29 13 -5 479 -5
478 -57 18 c-31 9 -71 27 -90 38 -81 51 -168 169 -184 251 l-6 31 -287 0 -287
0 -13 -50 c-30 -117 -136 -225 -261 -267 l-65 -22 -3 -473 c-2 -350 -6 -476
-15 -484 -27 -26 -56 -26 -82 0 l-25 25 0 503 c0 426 2 507 15 524 10 15 30
23 67 28 143 19 235 107 257 246 17 106 -6 100 411 100 326 0 360 -2 379 -17z
m-266 -486 c90 -38 147 -129 147 -237 0 -80 -23 -133 -80 -188 -126 -123 -347
-80 -421 81 -25 56 -25 158 0 212 25 56 67 102 112 126 82 42 153 44 242 6z
m144 -837 c255 -69 453 -238 525 -449 32 -93 32 -249 -1 -340 -75 -212 -275
-381 -536 -451 -113 -30 -292 -37 -413 -16 -184 32 -332 107 -457 231 -191
189 -237 439 -122 661 84 162 279 307 491 364 151 42 362 42 513 0z"/>
<path d="M8355 7761 c-75 -33 -107 -135 -63 -201 83 -124 268 -63 255 83 -3
40 -11 56 -40 84 -29 29 -44 36 -84 39 -26 2 -57 0 -68 -5z"/>
<path d="M8236 6924 c-160 -36 -282 -101 -380 -204 -180 -188 -174 -447 14
-630 80 -79 153 -123 262 -161 177 -61 379 -61 556 0 220 76 371 234 402 422
40 237 -150 473 -450 559 -100 29 -305 36 -404 14z"/>
<path d="M5414 7658 c-12 -6 -37 -45 -61 -98 -52 -113 -82 -136 -204 -150 -46
-6 -92 -13 -101 -16 -28 -8 -33 -52 -14 -141 25 -119 15 -148 -80 -240 -56
-54 -74 -78 -74 -98 0 -20 18 -44 74 -98 95 -92 105 -121 80 -240 -19 -89 -14
-133 14 -141 9 -3 55 -10 101 -16 121 -14 148 -35 205 -154 53 -112 64 -117
144 -74 31 17 71 38 87 47 17 9 53 16 80 16 42 0 64 -8 125 -43 109 -63 124
-59 175 45 22 45 49 91 60 104 31 34 93 56 178 64 68 6 80 10 94 32 15 23 15
30 0 96 -33 138 -19 185 83 276 46 41 70 70 70 84 0 14 -25 45 -69 87 -106
100 -117 137 -84 277 15 66 15 73 0 96 -14 22 -26 26 -94 32 -139 13 -177 39
-234 162 -54 116 -62 118 -184 48 -59 -34 -79 -40 -125 -39 -47 0 -67 7 -135
47 -44 26 -82 47 -85 46 -3 0 -14 -5 -26 -11z m417 -228 c86 -29 197 -102 205
-135 9 -35 -19 -75 -52 -75 -15 0 -53 18 -87 40 -83 56 -149 73 -258 68 -76
-4 -97 -9 -162 -41 -311 -154 -310 -591 1 -745 74 -36 79 -37 187 -37 104 0
114 2 175 32 191 95 283 304 220 504 -24 79 -13 112 38 117 45 5 59 -9 82 -85
25 -82 27 -225 4 -304 -57 -193 -217 -343 -412 -384 -85 -18 -130 -18 -216 0
-107 23 -188 66 -266 141 -221 213 -227 544 -13 765 144 149 362 204 554 139z"/>
<path d="M4969 6238 c-23 -40 -81 -140 -129 -223 -167 -288 -163 -279 -143
-304 17 -21 22 -22 83 -12 165 27 196 12 249 -123 28 -69 40 -88 59 -93 14 -3
29 0 36 8 16 17 318 541 314 543 -2 2 -22 8 -46 15 -62 18 -104 60 -137 138
-44 106 -44 105 -177 118 l-66 6 -43 -73z"/>
<path d="M6198 6300 c-62 -6 -98 -21 -98 -41 0 -4 -16 -42 -36 -83 -39 -83
-70 -112 -139 -130 l-43 -11 157 -269 c86 -148 164 -274 174 -280 27 -17 46 2
81 84 60 143 69 149 215 133 108 -12 136 -5 129 31 -3 12 -76 147 -164 299
-143 250 -161 277 -184 275 -14 0 -55 -4 -92 -8z"/>
<path d="M5627 6108 c-88 -141 -128 -222 -123 -244 l6 -24 150 0 c204 0 200
-11 71 213 -49 84 -77 99 -104 55z"/>
<path d="M7215 5734 c-96 -34 -136 -78 -485 -538 -123 -162 -218 -234 -360
-272 -36 -10 -75 -26 -87 -37 l-23 -20 0 -742 0 -742 23 -20 c12 -11 50 -26
87 -33 157 -29 264 -88 500 -274 146 -115 252 -174 365 -203 65 -17 138 -18
1036 -17 705 1 976 5 1002 13 99 33 167 125 167 227 0 93 -55 179 -140 218
-43 20 -64 21 -480 24 -382 3 -437 5 -452 19 -22 19 -23 52 -4 79 14 18 34 19
503 24 l488 5 51 27 c60 31 109 84 137 147 15 35 18 59 15 115 -7 109 -58 188
-153 239 -39 21 -52 22 -533 27 -474 5 -494 6 -508 24 -20 28 -17 60 7 82 20
18 47 19 508 24 474 5 487 6 526 27 180 97 210 329 60 461 -81 71 -89 72 -616
72 l-468 0 -15 22 c-21 30 -20 61 2 81 16 14 73 16 502 19 l485 3 51 27 c99
52 153 140 154 248 0 113 -61 208 -165 256 l-50 24 -982 0 c-729 0 -989 3
-1008 12 -49 22 -42 101 10 114 24 6 25 10 25 74 0 90 -8 125 -36 155 -27 29
-74 32 -139 9z"/>
<path d="M2485 5138 c-47 -25 -45 12 -45 -1000 l0 -959 25 -25 24 -24 1802 2
1801 3 19 24 c18 22 19 53 19 976 0 524 -3 961 -6 970 -18 47 57 45 -1841 45
-1268 -1 -1784 -4 -1798 -12z"/>
</g>
</svg>
