<?xml version="1.0" standalone="no"?>
<!DOCTYPE svg PUBLIC "-//W3C//DTD SVG 20010904//EN"
 "http://www.w3.org/TR/2001/REC-SVG-20010904/DTD/svg10.dtd">
<svg version="1.0" xmlns="http://www.w3.org/2000/svg"
 width="512.000000pt" height="512.000000pt" viewBox="0 0 512.000000 512.000000"
 preserveAspectRatio="xMidYMid meet">

<g transform="translate(0.000000,512.000000) scale(0.100000,-0.100000)"
fill="#000000" stroke="none">
<path d="M765 5104 c-59 -21 -110 -67 -139 -126 -24 -48 -26 -61 -26 -192 l0
-140 -184 -186 c-206 -206 -234 -249 -243 -364 -9 -122 49 -297 131 -393 l36
-41 0 -1576 0 -1576 -107 0 c-130 0 -172 -18 -210 -89 -20 -39 -23 -58 -23
-162 0 -128 7 -159 48 -203 57 -60 -124 -56 2512 -56 2636 0 2455 -4 2512 56
41 44 48 75 48 203 0 104 -3 123 -23 162 -38 71 -80 89 -209 89 l-108 0 0
1576 0 1576 36 41 c82 96 140 271 131 393 -9 115 -37 158 -243 364 l-184 186
0 140 c0 131 -2 144 -26 192 -29 58 -82 105 -144 127 -63 22 -3523 21 -3585
-1z m3538 -166 c41 -21 46 -39 47 -145 l0 -103 -1790 0 -1790 0 0 103 c1 105
6 123 45 145 29 17 3457 17 3488 0z m-3079 -543 l-75 -125 -342 0 -342 0 125
125 125 125 292 0 292 0 -75 -125z m886 113 c-1 -7 -11 -62 -23 -123 l-23
-110 -358 -3 -358 -2 29 48 c15 27 48 83 73 125 l45 77 308 0 c239 0 307 -3
307 -12z m725 -10 c7 -31 45 -219 45 -224 0 -2 -144 -4 -320 -4 -176 0 -320 2
-320 4 0 5 38 193 45 224 l5 22 270 0 270 0 5 -22z m835 -55 c25 -42 58 -98
73 -125 l29 -48 -359 0 -359 0 -22 113 c-12 62 -22 119 -22 125 0 9 78 12 308
12 l307 0 45 -77z m860 -48 l125 -125 -342 0 -342 0 -75 125 -75 125 292 0
292 0 125 -125z m-3423 -366 c-10 -123 -76 -234 -175 -297 -232 -148 -537 -6
-585 273 -18 103 -52 95 384 95 l382 0 -6 -71z m940 54 c10 -25 -14 -149 -38
-196 -51 -100 -121 -161 -227 -196 -154 -52 -329 4 -427 137 -42 56 -75 155
-75 223 l0 49 380 0 c347 0 381 -1 387 -17z m851 -65 c-7 -142 -70 -244 -190
-309 -58 -31 -70 -34 -148 -34 -71 0 -94 4 -141 26 -123 58 -190 163 -197 312
l-4 87 342 0 343 0 -5 -82z m942 33 c0 -68 -33 -167 -75 -223 -98 -133 -273
-189 -427 -137 -144 48 -233 154 -260 307 -19 112 -55 102 382 102 l380 0 0
-49z m933 -19 c-3 -126 -97 -264 -220 -323 -242 -115 -517 48 -540 320 l-6 71
384 -2 384 -3 -2 -63z m-3363 -470 c235 -114 503 -64 668 124 l48 55 30 -44
c134 -189 426 -253 638 -139 51 27 164 130 184 167 10 19 14 16 61 -36 101
-113 234 -177 386 -186 167 -10 303 43 425 166 l76 76 74 -76 c81 -82 156
-126 265 -154 98 -25 232 -17 328 20 16 7 17 -69 17 -1509 l0 -1516 -320 0
c-176 0 -320 2 -320 4 0 2 17 30 38 62 58 88 74 137 80 245 6 116 -7 178 -56
274 -31 59 -73 107 -269 306 l-233 236 42 19 c77 34 187 113 254 180 172 175
265 398 267 639 1 133 -10 171 -68 224 -69 63 -157 76 -239 34 -17 -8 -95 -78
-172 -155 -160 -158 -141 -149 -294 -128 -109 15 -148 27 -160 50 -12 22 -40
204 -40 257 0 34 11 48 145 182 86 88 150 161 160 183 33 80 9 176 -58 235
-55 48 -93 56 -236 50 -189 -8 -325 -51 -475 -151 -201 -134 -344 -349 -392
-590 l-17 -88 -154 154 c-153 152 -155 154 -220 282 -71 139 -115 197 -172
226 -20 10 -116 52 -214 94 -234 100 -270 101 -367 10 -123 -115 -124 -148 -5
-423 64 -147 98 -214 124 -241 23 -23 85 -62 166 -103 l130 -65 265 -266 265
-266 -486 -487 c-569 -572 -544 -539 -544 -729 0 -106 1 -113 36 -182 l35 -72
-298 0 -298 0 0 1516 c0 1440 1 1516 18 1509 204 -79 432 -27 592 134 l74 76
76 -76 c52 -53 95 -86 140 -107z m28 -393 c92 -39 177 -77 190 -85 12 -8 51
-73 88 -147 66 -131 67 -133 222 -292 339 -347 321 -325 336 -385 l15 -55 -53
-53 -52 -53 -273 276 -273 276 -136 68 c-76 38 -142 78 -148 88 -20 32 -154
351 -154 364 0 15 49 69 62 69 5 0 84 -32 176 -71z m1820 59 c7 -7 12 -19 12
-27 0 -8 -63 -78 -139 -156 -92 -92 -147 -156 -160 -185 -26 -57 -26 -119 -2
-277 34 -224 82 -267 332 -302 146 -20 196 -18 253 11 11 5 87 75 167 154 80
79 150 144 155 144 6 0 18 -6 28 -13 14 -10 17 -28 17 -104 0 -114 -20 -202
-70 -307 -92 -197 -271 -347 -487 -407 -110 -32 -276 -31 -389 1 -44 12 -95
25 -114 28 -32 4 -47 -9 -660 -621 -605 -605 -628 -626 -680 -641 -67 -20 -84
-20 -147 -1 -105 31 -176 126 -176 234 0 116 -14 99 659 772 l615 617 -4 38
c-3 22 -15 75 -27 119 -39 146 -27 327 33 475 85 209 292 385 517 440 86 22
249 26 267 8z m-138 -1663 c41 -3 107 -2 145 3 l70 10 263 -262 c314 -311 317
-315 317 -461 0 -84 -4 -107 -23 -146 -36 -74 -87 -125 -160 -161 -59 -29 -76
-33 -147 -33 -144 0 -151 5 -590 445 l-380 380 90 90 90 90 365 -364 c201
-201 377 -370 392 -375 52 -19 108 21 108 78 0 34 -21 57 -342 380 -311 311
-340 343 -308 337 19 -3 69 -8 110 -11z m-273 -697 c189 -189 343 -346 343
-350 0 -5 -313 -8 -695 -8 -382 0 -695 3 -695 7 0 12 683 693 695 693 5 0 164
-154 352 -342z m2103 -613 l0 -85 -2390 0 -2390 0 0 85 0 85 2390 0 2390 0 0
-85z"/>
<path d="M1953 1387 c-432 -431 -473 -475 -473 -505 0 -47 38 -82 87 -82 37 0
53 16 505 468 452 452 468 468 468 505 0 49 -35 87 -82 87 -30 0 -74 -41 -505
-473z"/>
</g>
</svg>
