<?xml version="1.0" standalone="no"?>
<!DOCTYPE svg PUBLIC "-//W3C//DTD SVG 20010904//EN"
 "http://www.w3.org/TR/2001/REC-SVG-20010904/DTD/svg10.dtd">
<svg version="1.0" xmlns="http://www.w3.org/2000/svg"
 width="900.000000pt" height="921.000000pt" viewBox="0 0 900.000000 921.000000"
 preserveAspectRatio="xMidYMid meet">

<g transform="translate(0.000000,921.000000) scale(0.100000,-0.100000)"
fill="#000000" stroke="none">
<path d="M3262 9199 c-262 -40 -557 -210 -792 -455 -91 -95 -204 -249 -195
-265 3 -4 231 -7 507 -7 277 -1 531 -1 565 -1 l63 -1 211 -246 c116 -136 213
-253 216 -260 3 -8 -44 -82 -103 -166 -201 -284 -278 -393 -303 -430 l-26 -38
-537 0 c-300 0 -538 -4 -538 -9 0 -21 47 -113 96 -187 133 -202 383 -369 626
-418 99 -20 265 -20 388 0 52 8 223 28 380 44 230 23 326 28 500 26 214 -2
215 -2 310 -35 52 -17 110 -42 130 -54 19 -12 105 -86 190 -165 85 -80 279
-246 430 -370 151 -124 448 -368 660 -542 212 -174 576 -473 810 -665 234
-192 461 -378 505 -415 44 -37 258 -212 475 -390 217 -178 426 -349 464 -381
99 -83 144 -103 236 -104 106 0 164 29 279 140 141 136 188 246 178 419 -5
104 -31 184 -81 249 -19 25 -812 666 -1921 1554 -1040 832 -1911 1533 -1938
1559 -117 116 -234 352 -317 644 -75 263 -196 454 -393 618 -208 174 -435 286
-682 337 -97 20 -307 28 -393 14z"/>
<path d="M1684 5608 c-95 -65 -87 -52 -775 -1293 -134 -242 -305 -550 -380
-685 l-136 -245 -86 -7 c-153 -11 -239 -56 -278 -143 -18 -38 -19 -92 -19
-969 0 -703 3 -939 12 -970 18 -58 89 -127 158 -150 47 -17 94 -20 318 -24
l262 -4 0 -337 c0 -304 2 -346 20 -415 26 -102 63 -168 130 -237 104 -105 206
-134 442 -126 122 3 165 9 212 26 144 52 246 153 307 306 23 59 24 68 27 422
l3 363 1494 0 1493 0 4 -347 c4 -322 6 -353 26 -413 57 -171 212 -314 380
-349 66 -14 291 -14 363 -1 127 24 262 128 314 242 51 113 55 146 55 520 l0
348 233 0 c256 0 338 11 412 55 56 32 81 68 100 141 13 50 15 183 15 944 0
567 -4 901 -11 930 -27 118 -123 178 -307 192 -38 3 27 -104 -567 933 -183
319 -410 716 -506 883 -101 176 -194 326 -221 356 -84 95 101 86 -1781 86
l-1665 0 -48 -32z m2935 -558 c88 -44 125 -107 347 -575 70 -148 171 -362 224
-475 237 -500 290 -612 290 -616 0 -2 -936 -4 -2080 -4 -1469 0 -2080 3 -2080
11 0 6 66 148 146 317 80 169 186 390 234 492 49 102 142 298 208 436 147 310
186 369 274 417 31 16 108 17 1216 17 1155 0 1184 0 1221 -20z m-3544 -2106
c124 -32 225 -115 283 -233 36 -73 37 -77 37 -190 0 -110 -2 -120 -32 -184
-36 -76 -114 -164 -179 -202 -102 -60 -269 -71 -386 -26 -109 42 -210 162
-243 286 -41 160 0 325 110 439 104 109 258 150 410 110z m4868 1 c85 -22 134
-51 199 -116 86 -86 121 -166 126 -291 5 -108 -10 -171 -59 -248 -33 -53 -109
-128 -160 -158 -88 -53 -240 -66 -352 -32 -84 26 -150 72 -210 145 -71 89 -91
148 -91 276 -1 102 0 107 37 182 98 199 303 296 510 242z"/>
</g>
</svg>
