<?xml version="1.0" standalone="no"?>
<!DOCTYPE svg PUBLIC "-//W3C//DTD SVG 20010904//EN"
 "http://www.w3.org/TR/2001/REC-SVG-20010904/DTD/svg10.dtd">
<svg version="1.0" xmlns="http://www.w3.org/2000/svg"
 width="1000.000000pt" height="601.000000pt" viewBox="0 0 1000.000000 601.000000"
 preserveAspectRatio="xMidYMid meet">

<g transform="translate(0.000000,601.000000) scale(0.100000,-0.100000)"
fill="#000000" stroke="none">
<path d="M1530 5976 l0 -33 61 -6 c36 -4 67 -14 77 -24 15 -15 11 -16 -61 -9
l-77 7 0 -241 0 -240 68 0 67 -1 -30 -16 c-16 -9 -46 -17 -65 -17 l-35 -1 -3
-172 c-2 -142 0 -173 11 -173 8 0 83 -7 167 -15 116 -12 156 -20 165 -32 14
-19 43 -20 128 -3 35 7 71 11 79 7 13 -4 16 -39 20 -199 5 -199 16 -257 45
-254 12 1 20 -13 28 -49 l11 -50 7 55 c4 30 7 129 8 220 1 122 3 151 9 110 8
-60 22 -1683 23 -2740 1 -689 -9 -1448 -21 -1612 l-7 -98 253 0 c199 0 253 3
249 13 -2 7 -22 12 -50 11 l-46 0 -3 185 c-6 370 7 4365 14 4341 4 -14 9 -93
10 -177 2 -83 6 -155 10 -159 5 -4 23 1 42 11 32 17 34 21 40 93 3 41 6 121 6
177 0 65 4 107 13 118 9 13 46 20 182 31 395 34 593 41 606 23 7 -10 170 -11
199 -2 11 4 20 15 20 26 0 29 32 36 122 26 96 -10 107 -7 104 27 -3 24 0 26
38 26 22 1 52 7 66 15 32 18 44 19 37 1 -10 -26 16 -48 53 -44 31 3 35 7 38
33 4 38 16 50 50 50 23 0 27 5 30 32 3 28 0 32 -30 39 -32 7 -32 8 -8 15 14 4
39 7 56 8 25 1 34 7 44 31 l12 29 62 -86 c33 -48 99 -126 145 -173 49 -49 93
-104 104 -130 56 -125 168 -267 278 -349 192 -145 342 -195 579 -193 199 2
409 78 531 194 34 32 66 58 70 58 5 0 9 9 9 20 0 11 15 37 33 57 17 19 31 40
29 45 -2 6 4 8 13 5 10 -5 15 0 15 13 0 11 5 20 10 20 6 0 10 7 10 15 0 9 6
18 14 21 8 3 18 19 21 35 4 16 13 29 20 29 9 0 12 6 8 15 -3 9 3 25 13 36 10
12 19 26 20 32 0 7 2 20 2 30 1 9 8 17 15 17 8 0 12 13 12 35 -1 20 3 39 9 43
6 4 11 27 12 50 0 24 5 47 10 50 5 4 10 23 10 42 5 102 7 110 31 110 13 0 23
5 23 12 0 6 9 2 20 -10 30 -32 34 -27 9 8 -27 36 -19 48 23 32 37 -14 56 1 32
25 -17 18 -18 27 -1 17 8 -6 8 -3 -1 9 -18 21 -6 40 20 31 14 -4 18 -2 14 5
-15 24 7 9 45 -31 l40 -43 -6 35 c-3 19 -1 42 5 50 9 13 12 13 24 -3 12 -15
20 -16 62 -7 27 6 57 13 67 16 10 3 17 0 17 -9 0 -24 45 -40 94 -33 34 5 51
14 68 37 50 66 67 78 109 74 33 -4 44 1 74 28 19 17 35 37 35 43 0 7 27 39 60
73 48 49 80 71 165 110 58 28 105 52 105 55 0 3 -12 17 -27 31 -22 20 -24 25
-10 25 9 0 17 5 17 10 0 6 -53 10 -140 10 l-139 0 19 -42 c24 -53 25 -100 4
-161 -21 -61 -29 -65 -30 -14 0 23 -3 81 -5 130 l-4 87 -202 0 c-184 0 -202
-2 -206 -17 -4 -17 -5 -17 -6 0 -1 15 -16 17 -173 17 l-173 0 -1 -128 c-2
-299 -112 -562 -323 -772 -81 -80 -199 -170 -225 -170 -6 0 12 15 39 34 62 43
146 118 123 110 -12 -4 -18 -1 -18 9 0 8 9 17 20 20 11 3 19 11 18 18 -2 7 6
15 17 18 11 3 20 15 20 26 0 13 6 19 16 17 11 -1 16 4 15 15 -1 12 5 17 17 15
14 -2 18 2 15 20 -2 14 2 22 10 21 6 -2 12 6 12 18 0 15 4 19 16 15 13 -5 15
-2 11 14 -3 12 0 23 7 26 8 3 12 16 9 32 -1 15 0 21 3 15 12 -27 31 -13 26 18
-3 23 -1 30 7 24 8 -4 12 -2 10 6 -4 33 1 40 23 33 21 -6 21 -5 9 10 -10 12
-11 20 -3 28 6 6 8 17 5 24 -3 9 2 14 17 14 14 0 19 4 13 13 -4 6 -7 28 -8 49
0 31 2 35 17 27 15 -8 17 -5 12 23 -3 18 -7 38 -9 45 -2 7 0 15 5 18 20 12 10
35 -15 35 -14 0 -25 4 -25 9 0 9 48 0 70 -14 5 -3 10 -2 10 4 0 5 -5 13 -10
16 -6 4 -8 11 -5 16 4 5 1 9 -6 9 -8 0 -9 4 0 13 15 19 -10 53 -33 44 -9 -4
-16 -2 -16 3 0 14 54 12 68 -2 25 -25 20 0 -6 29 -28 30 -28 30 -8 47 17 14
18 16 3 16 -9 0 -17 5 -17 11 0 6 -9 8 -20 4 -17 -5 -20 -2 -20 24 l0 31 -144
0 -143 0 -7 -93 c-14 -201 -81 -353 -216 -487 -98 -98 -164 -140 -287 -183
-114 -39 -269 -48 -390 -22 -213 46 -398 192 -494 390 -51 106 -72 191 -73
302 l-1 93 -560 -1 c-308 -1 -551 -3 -540 -5 11 -2 72 -8 136 -14 l116 -12 32
-52 c17 -29 31 -62 31 -73 0 -20 -6 -22 -57 -25 l-58 -3 0 -53 0 -54 -50 6
c-27 3 -89 8 -137 12 -78 6 -88 5 -88 -10 0 -12 -6 -16 -17 -12 -10 3 -47 6
-83 8 l-65 3 0 75 0 75 84 -3 c65 -3 82 0 79 10 -5 15 -116 30 -164 21 -36 -6
-44 -27 -44 -119 0 -52 -1 -54 -27 -54 -16 0 -215 16 -443 37 -228 20 -449 36
-491 37 -60 1 -75 4 -71 15 4 10 -1 11 -17 6 -22 -7 -303 12 -331 22 -8 3 -33
5 -55 4 -63 -2 -70 7 -67 88 4 80 -11 96 -26 29 l-10 -43 -1 43 -1 42 -80 0
-80 0 0 -34z m167 -78 c-3 -8 -6 -5 -6 6 -1 11 2 17 5 13 3 -3 4 -12 1 -19z
m2141 -144 l3 -50 -48 5 -48 6 -3 44 c-4 51 5 60 56 52 36 -6 37 -7 40 -57z
m-2048 32 c0 -2 -24 -3 -52 -3 -51 0 -51 0 -13 6 35 6 65 4 65 -3z m75 -6 c17
-7 15 -9 -12 -9 -17 -1 -35 4 -38 9 -7 12 22 12 50 0z m4918 -28 c-6 -4 -14
-18 -18 -32 -5 -22 -3 -25 22 -24 15 0 44 7 63 16 41 18 45 17 31 -11 -7 -12
-17 -18 -26 -15 -8 3 -35 -4 -60 -16 -51 -25 -72 -22 -77 12 -2 18 -9 22 -27
20 l-24 -2 24 18 c23 18 73 40 94 41 6 0 5 -3 -2 -7z m-2845 -63 c3 -27 -20
-55 -37 -44 -6 3 -9 16 -7 28 3 12 5 28 5 35 2 25 36 8 39 -19z m2722 21 c0
-10 -32 -30 -49 -30 -6 0 -11 6 -11 14 0 13 9 17 53 25 4 0 7 -3 7 -9z m-3863
-16 c-3 -3 -12 -4 -19 -1 -8 3 -5 6 6 6 11 1 17 -2 13 -5z m4178 -43 c-3 -6
-11 -11 -17 -11 -6 0 -6 6 2 15 14 17 26 13 15 -4z m-2 -37 c12 -12 -6 -34
-29 -34 -28 0 -30 8 -6 26 19 15 26 17 35 8z m-629 -53 c3 -4 -6 -6 -19 -3
-14 2 -25 6 -25 8 0 8 39 4 44 -5z m-3481 -159 c33 -22 36 -27 24 -39 -8 -8
-59 -21 -113 -29 -102 -14 -184 -10 -184 10 1 6 21 27 45 46 34 26 58 36 97
41 65 7 82 3 131 -29z m-1013 9 c-14 -27 -13 -31 11 -31 17 0 20 5 17 25 -5
25 -5 25 67 25 67 0 73 -2 79 -23 3 -13 18 -27 37 -34 38 -15 35 -21 -18 -34
-34 -8 -282 5 -322 17 -7 2 15 19 50 38 77 40 94 44 79 17z m1855 -1 c272 -12
275 -13 275 -44 0 -37 26 -56 76 -56 61 0 55 -16 -9 -24 -55 -7 -87 -1 -87 17
0 5 -11 25 -25 42 -19 26 -34 34 -72 40 -95 14 -640 23 -753 12 -56 -5 -68 -3
-90 14 l-25 21 240 -6 c132 -3 344 -10 470 -16z m-217 -59 c12 -21 22 -50 22
-65 0 -22 -4 -26 -32 -27 -44 -1 -81 -12 -85 -25 -3 -8 13 -10 47 -6 l50 5 0
-51 c0 -56 -7 -62 -70 -62 -21 0 -42 -4 -45 -10 -3 -5 -23 -10 -43 -10 -43 0
-123 21 -104 27 18 7 15 27 -8 43 -14 10 -16 17 -9 27 15 18 4 44 -16 37 -9
-4 -14 -12 -11 -19 10 -27 -11 -40 -51 -29 -21 5 -49 7 -63 4 -18 -4 -30 0
-41 14 -18 22 -33 26 -101 27 -27 1 -48 5 -48 9 0 4 -10 10 -23 14 -12 3 -32
14 -44 26 -12 11 -27 20 -33 20 -15 0 -12 20 3 20 6 1 147 16 312 34 394 44
366 45 393 -3z m-1343 -93 c-3 -66 -7 -123 -10 -126 -3 -3 -5 52 -5 121 0 74
4 127 10 127 5 0 7 -48 5 -122z m1521 90 c-1 -7 -4 -17 -7 -23 -5 -9 -10 -58
-13 -140 -1 -29 -3 -30 -46 -30 l-45 0 -6 80 c-3 44 -10 90 -14 103 -7 21 -6
22 63 22 51 0 70 -4 68 -12z m-1711 -37 c36 -5 45 -10 33 -15 -10 -5 -18 -14
-18 -21 0 -14 -38 -41 -57 -40 -7 0 -19 9 -27 20 -9 12 -15 15 -16 7 0 -7 -4
-10 -10 -7 -16 10 -11 22 13 30 21 7 21 7 2 12 -11 3 -24 9 -29 14 -12 11 37
11 109 0z m4108 -237 c6 -6 -35 -44 -47 -44 -3 0 -6 7 -6 15 0 9 6 12 17 8 12
-5 15 -2 10 10 -6 17 12 24 26 11z m-63 -50 c0 -8 -19 -13 -24 -6 -3 5 1 9 9
9 8 0 15 -2 15 -3z m-3801 -66 l-2 -43 -6 35 c-7 33 -5 50 5 50 2 0 3 -19 3
-42z m401 0 c-1 -40 -2 -42 -15 -24 -16 21 -20 48 -8 59 15 16 23 4 23 -35z
m-51 -2433 c0 -990 -2 -1864 -6 -1943 -6 -131 -8 -142 -25 -142 -11 0 -17 4
-14 9 7 11 -95 5 -103 -6 -3 -4 -29 -8 -57 -8 l-51 -1 -7 91 c-3 49 -5 989 -3
2088 1 1476 5 2000 13 2005 7 4 13 15 15 25 3 15 16 19 68 22 35 3 70 10 78
17 12 9 16 9 24 -3 5 -8 9 -17 9 -20 0 -4 9 -9 20 -12 19 -5 20 0 22 91 7 377
15 -701 17 -2213z m-379 2055 c0 -5 -7 -10 -15 -10 -8 0 -15 5 -15 10 0 6 7
10 15 10 8 0 15 -4 15 -10z"/>
<path d="M3133 5995 c-17 -18 -16 -26 0 -19 7 2 49 6 92 7 52 1 80 6 83 15 6
18 -159 16 -175 -3z"/>
<path d="M5455 6000 c3 -5 19 -10 35 -10 16 0 32 5 35 10 4 6 -10 10 -35 10
-25 0 -39 -4 -35 -10z"/>
<path d="M5676 5991 c-11 -12 -16 -31 -14 -52 3 -31 12 -39 113 -101 61 -36
120 -74 133 -83 12 -9 26 -13 32 -10 18 11 30 80 30 173 l0 92 -138 0 c-124 0
-141 -2 -156 -19z"/>
<path d="M6384 5998 c-6 -9 5 -14 45 -23 23 -5 31 -4 27 4 -4 6 -15 11 -24 11
-14 0 -14 2 -3 9 10 7 6 9 -13 8 -16 -1 -30 -5 -32 -9z"/>
<path d="M5107 5953 c-8 -16 -12 -35 -9 -43 23 -72 122 -62 122 12 0 33 -29
58 -68 58 -24 0 -35 -6 -45 -27z m73 -18 c25 -30 -10 -61 -38 -33 -7 7 -8 17
-1 30 12 22 23 23 39 3z"/>
<path d="M2876 5951 c-20 -22 -11 -51 16 -51 15 0 17 4 10 16 -5 9 -7 25 -5
35 7 24 1 24 -21 0z"/>
<path d="M2911 5941 c-10 -7 -10 -10 -1 -16 6 -4 16 -3 22 3 13 13 -4 23 -21
13z"/>
<path d="M3726 5914 c-25 -24 -17 -58 14 -62 17 -2 21 0 12 6 -11 7 -10 11 4
16 14 5 15 9 5 19 -9 9 -14 9 -21 -3 -5 -8 -10 -10 -10 -4 0 5 5 15 12 22 6 6
9 14 6 17 -3 3 -13 -2 -22 -11z"/>
<path d="M5473 5884 c-7 -3 -17 -21 -23 -40 -10 -30 -9 -38 6 -55 17 -19 59
-25 80 -11 23 15 34 50 25 75 -13 33 -51 46 -88 31z m51 -43 c9 -14 -4 -41
-19 -41 -18 0 -28 17 -21 35 6 17 32 20 40 6z"/>
<path d="M5396 5844 c-18 -10 -41 -14 -63 -11 -20 4 -31 2 -28 -4 9 -14 63
-11 95 6 17 9 30 18 30 20 0 7 -1 6 -34 -11z"/>
<path d="M185 5779 c-94 -15 -173 -28 -177 -28 -5 -1 -8 -7 -8 -15 0 -13 -1
-13 137 10 35 5 43 4 43 -9 0 -12 -17 -17 -77 -22 -43 -3 -83 -8 -89 -10 -8
-2 -12 -56 -13 -164 -2 -130 1 -164 12 -176 13 -13 16 -12 22 2 5 15 7 15 15
3 7 -11 1 -22 -20 -42 l-30 -27 0 -521 0 -522 30 -75 c16 -41 30 -81 30 -89 0
-8 14 -33 32 -55 25 -32 44 -43 97 -58 91 -27 221 -38 232 -20 10 16 12 1034
2 1467 -6 297 -7 302 -27 302 -20 1 -20 2 -4 14 22 16 13 26 -26 27 -28 1 -27
2 12 11 23 5 42 13 42 19 0 14 -48 9 -235 -22z m-46 -103 c-2 -2 -26 -6 -54
-10 -34 -4 -43 -3 -30 3 19 9 93 15 84 7z m214 -973 c2 -354 1 -643 -3 -643
-9 0 -20 1278 -11 1300 5 13 6 13 8 0 1 -8 4 -304 6 -657z m-93 631 c0 -8 -4
-12 -10 -9 -5 3 -10 10 -10 16 0 5 5 9 10 9 6 0 10 -7 10 -16z"/>
<path d="M5267 5799 c-54 -32 -35 -109 28 -109 57 0 85 60 45 100 -22 22 -46
25 -73 9z m61 -52 c2 -9 -4 -20 -13 -23 -20 -8 -50 19 -40 36 10 17 49 8 53
-13z"/>
<path d="M4940 5789 c-41 -5 -86 -12 -100 -15 -14 -4 -28 -8 -32 -9 -5 -2 -18
-3 -30 -4 l-21 -1 21 -23 c12 -13 22 -31 22 -40 0 -10 9 -42 19 -73 11 -30 17
-62 14 -70 -8 -20 15 -44 43 -44 13 0 24 -6 24 -12 1 -25 114 -128 141 -128
11 0 109 302 109 334 0 19 -5 26 -20 26 -23 0 -23 0 -11 33 15 40 -17 44 -179
26z m-59 -242 c-13 -13 -26 -3 -16 12 3 6 11 8 17 5 6 -4 6 -10 -1 -17z"/>
<path d="M5443 5675 c-3 -9 -3 -19 1 -22 3 -4 0 -14 -8 -22 -23 -26 -68 -239
-61 -288 7 -48 9 -49 98 -32 69 12 168 55 243 105 82 55 76 64 -121 199 -112
76 -141 87 -152 60z"/>
<path d="M6620 5405 c7 -9 15 -13 17 -11 7 7 -7 26 -19 26 -6 0 -6 -6 2 -15z"/>
<path d="M6660 5405 c7 -8 16 -12 21 -9 13 8 1 24 -18 24 -13 0 -13 -3 -3 -15z"/>
<path d="M9919 5406 c-2 -3 -64 -6 -138 -8 -128 -3 -134 -4 -142 -25 -6 -16
-17 -23 -36 -24 -60 -3 88 -17 192 -18 61 -1 117 -6 125 -11 12 -7 16 -41 18
-174 3 -174 -3 -207 -46 -238 -33 -23 -44 -79 -37 -195 4 -59 7 -185 8 -278 2
-162 1 -171 -20 -192 -27 -27 -31 -62 -39 -365 -5 -217 -4 -237 12 -246 26
-14 8 -35 -18 -21 -17 9 -24 8 -33 -5 -7 -9 -17 -16 -23 -16 -12 0 -34 -70
-34 -108 -1 -49 -17 -4 -20 53 -3 53 -5 58 -18 44 -13 -15 -16 -15 -26 -1 -9
13 -15 14 -26 4 -8 -6 -32 -15 -54 -20 -35 -7 -39 -11 -36 -35 3 -26 1 -27
-52 -27 -45 0 -57 4 -66 20 -11 20 -68 41 -85 31 -5 -3 3 -8 19 -11 35 -6 56
-34 39 -51 -10 -10 -17 -9 -33 6 -19 17 -20 17 -29 -7 -8 -21 -14 -24 -40 -20
-17 2 -31 9 -31 15 0 5 -8 3 -18 -6 -14 -13 -38 -17 -102 -17 l-84 0 -44 -47
c-51 -54 -77 -107 -87 -173 -6 -41 -11 -47 -51 -67 -24 -13 -55 -23 -68 -23
-14 0 -40 -15 -62 -37 -22 -21 -50 -45 -62 -53 -12 -8 -34 -37 -47 -63 -28
-57 -30 -53 -40 78 -8 115 -16 166 -25 160 -15 -9 -28 55 -40 192 -14 158 -30
234 -63 296 l-30 58 -116 -3 -116 -3 0 -113 c0 -140 -18 -146 -22 -6 -3 153
-10 265 -17 271 -3 4 -6 -6 -6 -22 0 -22 -3 -25 -13 -16 -8 6 -17 8 -21 4 -4
-4 -6 6 -5 23 4 58 -28 135 -44 107 -2 -5 -3 -3 -1 3 1 6 -8 30 -20 55 -17 33
-29 45 -49 47 -15 2 -27 9 -27 16 0 7 -13 23 -30 36 -16 13 -30 28 -30 33 0 6
-12 28 -27 50 -24 34 -28 37 -39 23 -10 -14 -12 -12 -18 15 -3 17 -1 40 5 51
6 11 8 22 5 25 -6 7 31 45 67 67 15 9 33 27 38 40 6 13 30 32 54 44 40 19 82
69 119 140 21 41 26 149 6 137 -5 -3 -10 1 -10 9 0 8 -7 21 -15 29 -13 13 -13
16 0 27 19 16 19 30 0 30 -8 0 -15 4 -15 10 0 5 -14 26 -32 45 -23 27 -28 39
-19 44 18 11 -39 57 -87 71 -36 10 -162 14 -162 6 0 -3 5 -17 11 -33 l10 -28
-21 23 c-12 12 -25 20 -31 17 -5 -4 -9 8 -9 25 0 24 -4 31 -15 26 -10 -4 -16
3 -20 22 -12 59 -28 77 -71 80 -51 4 -78 -23 -77 -74 1 -31 37 -95 67 -117 7
-5 1 -16 -15 -30 -15 -12 -29 -32 -33 -44 -3 -13 -9 -32 -12 -43 -4 -15 -1
-20 14 -20 11 0 26 -14 38 -37 20 -39 51 -54 64 -33 6 9 14 6 30 -10 25 -25
36 -21 21 8 -16 30 -14 32 24 27 43 -6 114 -41 121 -59 3 -7 -6 -30 -20 -51
-39 -57 -35 -70 22 -71 69 -2 102 -18 102 -49 0 -29 -46 -77 -91 -95 -19 -8
-37 -31 -58 -75 -17 -35 -39 -66 -49 -70 -116 -46 -185 -65 -198 -54 -8 6 -14
17 -14 23 0 6 -11 32 -25 58 -30 57 -34 94 -7 83 38 -16 109 -17 138 -2 27 14
28 16 9 23 -100 36 -250 105 -257 118 -12 22 -2 36 28 36 22 0 23 2 14 21 -18
33 -4 34 41 5 22 -15 43 -26 45 -23 2 2 -12 21 -31 43 -19 21 -35 44 -35 50 0
18 26 35 44 28 19 -7 20 0 6 27 -6 10 -18 19 -28 19 -19 0 -58 -55 -68 -97 -4
-15 -16 -41 -26 -58 -25 -41 -23 -52 13 -85 30 -27 31 -30 19 -59 -12 -31 -26
-36 -67 -25 -15 4 -20 11 -15 22 5 15 3 14 -12 -1 -21 -20 -51 -19 -51 2 0 17
-72 40 -140 44 -27 2 -59 8 -70 14 -11 6 -54 21 -95 33 -41 13 -85 30 -97 38
-13 8 -23 11 -23 6 0 -4 -10 2 -22 13 -28 25 -97 63 -116 63 -8 0 -23 11 -34
25 -11 14 -25 25 -32 25 -7 0 -20 32 -31 75 l-18 74 36 41 c41 44 46 76 26
160 -9 40 -8 46 13 61 20 16 16 15 -32 -1 -30 -11 -65 -19 -77 -20 -18 0 -23
-6 -23 -24 0 -21 -22 -56 -36 -56 -3 0 -16 7 -29 16 -24 16 -34 44 -16 44 15
0 24 41 12 53 -15 15 -14 27 4 27 8 0 15 5 15 10 0 19 -29 22 -51 6 -20 -14
-21 -16 -5 -22 16 -6 16 -8 -2 -28 -21 -23 -73 -137 -121 -263 -36 -95 -42
-192 -15 -248 26 -56 146 -185 260 -280 275 -231 274 -229 274 -323 0 -68 -30
-275 -41 -287 -6 -6 -125 -10 -316 -10 l-306 0 -30 -37 c-25 -32 -35 -60 -57
-175 -15 -76 -33 -159 -40 -186 -8 -30 -10 -68 -5 -105 10 -82 8 -243 -5 -256
-5 -5 -10 -17 -10 -26 0 -9 -13 -29 -30 -43 -16 -15 -30 -35 -30 -46 0 -25
-71 -31 -361 -31 l-226 0 5 245 c5 240 0 278 -26 221 -7 -17 -7 -27 0 -34 10
-10 -3 -77 -31 -157 -5 -16 -20 -59 -32 -93 -21 -60 -48 -90 -57 -64 -7 21
-42 14 -42 -8 0 -27 73 -102 92 -95 20 8 42 -20 31 -38 -4 -8 -21 -29 -36 -47
-25 -30 -31 -32 -60 -23 -26 7 -32 14 -30 34 1 13 -2 37 -7 52 -6 17 -6 25 0
22 6 -4 10 1 10 10 0 9 -4 13 -10 10 -5 -3 -10 -3 -10 2 -2 34 -21 157 -27
165 -12 21 -22 -25 -22 -117 -2 -122 -16 -217 -35 -227 -9 -5 -16 -15 -16 -23
0 -22 -14 -25 -55 -11 -34 12 -40 20 -52 60 -10 33 -21 50 -37 56 -13 5 -27
14 -31 19 -4 7 -52 11 -126 11 -108 0 -119 2 -119 18 0 44 -54 57 -72 18 -9
-20 -21 -26 -64 -32 -30 -3 -63 -4 -73 -1 -30 7 -126 -18 -128 -34 -15 -114
-12 -108 -56 -133 -23 -13 -52 -27 -64 -30 -25 -8 -30 6 -57 146 -18 93 -26
110 -68 140 -23 16 -48 23 -88 24 -36 1 -81 13 -130 33 -90 38 -217 60 -280
49 -25 -5 -56 -7 -70 -5 -24 3 -23 4 10 20 28 13 31 16 13 17 -12 0 -39 -11
-59 -25 -27 -18 -32 -25 -18 -25 59 -1 218 -21 232 -29 12 -8 -12 -11 -83 -11
-55 -1 -119 -4 -143 -6 -38 -5 -43 -2 -51 20 -9 23 -12 24 -53 15 -24 -5 -72
-24 -107 -43 -55 -28 -69 -41 -93 -86 -16 -30 -28 -68 -28 -89 0 -47 -19 -73
-51 -72 -13 1 -40 2 -59 3 -19 1 -48 -1 -65 -4 -37 -7 -75 6 -75 26 0 19 -47
56 -71 56 -17 0 -18 -29 -20 -633 -3 -845 -2 -980 5 -1031 6 -35 40 -104 74
-146 2 -3 31 -7 65 -10 53 -4 62 -8 60 -23 -1 -14 4 -17 17 -14 10 2 24 1 31
-4 11 -7 10 -9 -3 -9 -10 0 -22 -9 -28 -20 -14 -25 -30 -26 -30 -1 0 17 -3 18
-25 8 -14 -7 -24 -19 -22 -27 3 -21 81 -36 110 -22 l22 11 -22 7 c-31 9 -29
24 2 24 14 0 25 4 25 9 0 5 15 12 32 16 62 12 65 15 72 55 6 38 29 59 25 22
-3 -38 2 -53 25 -61 30 -12 257 -31 270 -23 6 3 19 6 30 7 12 1 39 5 61 8 22
3 109 9 194 12 85 3 157 8 162 10 4 3 10 1 14 -5 3 -5 17 -10 29 -10 17 0 23
-5 22 -17 -1 -13 6 -18 22 -17 96 3 113 5 107 14 -3 5 -1 10 4 10 6 0 11 -4
11 -10 0 -13 97 -13 105 0 7 11 113 11 120 0 2 -4 36 -6 74 -4 77 3 104 -10
40 -20 -22 -3 -48 -12 -58 -18 -15 -9 -27 -8 -56 6 -43 21 -119 16 -144 -9
-12 -12 -6 -13 48 -10 34 2 71 7 81 10 13 4 22 -1 30 -15 9 -17 20 -20 68 -19
54 1 128 16 90 18 -10 1 -18 6 -18 11 0 16 77 16 95 -1 14 -13 155 -12 155 2
0 13 74 9 207 -11 75 -11 86 -10 120 7 29 14 38 24 38 43 0 24 3 25 54 24 32
0 56 -5 59 -12 2 -8 33 -10 107 -6 76 4 110 2 131 -8 16 -8 47 -13 69 -12 22
1 119 4 215 8 154 7 651 8 657 3 9 -10 0 -145 -13 -199 -17 -64 -17 -70 -1
-103 14 -29 15 -44 7 -80 -12 -54 3 -99 30 -90 19 6 29 -16 22 -47 -3 -15 -6
-15 -38 -2 -33 14 -37 13 -63 -8 -16 -13 -36 -35 -46 -51 -9 -15 -34 -48 -56
-73 -21 -25 -39 -51 -39 -57 0 -7 -27 -23 -60 -36 -64 -25 -68 -35 -20 -44 47
-10 32 -57 -23 -71 -24 -6 -30 -3 -34 14 -3 11 -14 20 -25 20 -10 0 -16 -4
-13 -10 3 -5 1 -10 -4 -10 -6 0 -11 5 -11 10 0 6 -15 10 -32 11 -31 0 -32 1
-9 10 13 5 32 7 42 4 12 -4 19 -1 19 6 0 9 -20 10 -82 3 -46 -4 -111 -8 -145
-8 -35 0 -63 -3 -63 -6 0 -4 -52 -4 -116 -2 -76 3 -115 1 -111 -5 4 -6 -17
-11 -54 -11 -88 -1 -86 -12 2 -12 56 -1 70 -3 56 -11 -9 -6 -15 -14 -12 -20 4
-5 -3 -9 -15 -9 -12 0 -19 4 -15 9 3 5 1 12 -5 16 -5 3 -10 -2 -10 -12 0 -15
-2 -16 -10 -3 -8 12 -13 13 -29 3 -15 -10 -20 -10 -24 0 -3 9 -10 9 -31 -1
-15 -6 -36 -12 -46 -12 -11 0 -20 -6 -20 -14 0 -15 57 -24 104 -16 16 3 99 2
185 -2 86 -3 662 -6 1279 -7 l1124 -1 -69 73 c-37 41 -92 115 -122 165 l-54
91 -18 -34 c-25 -46 -24 -73 5 -126 21 -41 22 -45 5 -46 -9 -1 -20 5 -23 13
-4 11 -27 14 -106 13 -93 -2 -102 0 -116 19 -9 13 -11 22 -5 22 22 0 9 32 -34
86 -54 66 -61 113 -20 132 39 18 32 53 -20 106 -25 26 -45 49 -45 52 0 3 14
10 31 16 65 23 110 157 111 333 l0 79 28 -109 c16 -61 40 -142 53 -182 25 -71
25 -72 5 -79 -24 -7 -18 -41 16 -88 13 -17 22 -36 19 -42 -2 -7 7 -24 22 -39
14 -16 25 -36 25 -46 0 -16 -8 -19 -42 -19 -57 -1 -30 -16 39 -22 l52 -5 -15
29 c-9 17 -14 32 -12 34 2 2 20 -27 38 -64 54 -104 144 -234 210 -301 l60 -61
265 0 c265 0 266 0 255 21 -9 15 -8 24 1 36 10 12 29 14 87 10 75 -5 92 -13
92 -49 0 -15 9 -18 50 -18 48 0 51 1 57 30 5 27 9 30 47 31 23 1 31 4 19 6
-13 2 -23 10 -23 18 0 7 -5 15 -11 17 -8 3 -4 20 11 53 16 35 24 76 28 137 4
78 7 87 25 90 11 2 29 16 41 31 18 24 19 29 6 37 -8 5 -24 10 -34 10 -19 0
-79 27 -291 132 -107 53 -172 91 -123 73 15 -6 17 1 16 57 0 34 2 77 6 94 6
29 5 31 -17 27 -20 -4 -23 -10 -23 -51 1 -36 -3 -47 -16 -50 -16 -3 -18 5 -18
58 0 61 0 61 28 59 15 -2 32 0 38 4 21 12 32 -16 43 -108 6 -49 11 -96 11
-103 0 -19 159 -92 202 -92 21 0 38 3 37 8 -1 14 -55 48 -121 76 -44 18 -68
34 -69 45 0 9 -4 53 -7 98 -4 46 -4 83 0 83 5 0 9 -15 9 -32 l2 -33 6 33 6 33
210 -4 c142 -2 220 -8 240 -16 17 -7 80 -17 140 -21 61 -5 130 -13 155 -20 25
-6 63 -11 85 -11 46 1 80 -20 72 -44 -4 -8 -2 -15 3 -15 6 0 10 -12 9 -27 0
-16 -3 -23 -5 -17 -3 7 -23 8 -61 3 -31 -4 -68 -6 -82 -3 -14 3 -46 0 -71 -5
-30 -6 -37 -9 -20 -11 14 -1 33 -5 44 -9 22 -8 -131 -50 -192 -52 -20 -1 -29
-3 -19 -6 9 -2 17 -9 17 -14 0 -5 -8 -9 -17 -10 -14 0 -13 -2 5 -9 12 -5 27
-21 32 -34 5 -14 17 -25 27 -24 10 0 44 -7 76 -16 32 -9 60 -16 62 -16 3 0 5
-7 5 -15 0 -8 14 -17 35 -21 63 -11 34 -29 -48 -29 -79 -1 -120 -14 -51 -17
21 -1 50 -2 64 -3 14 -1 61 -3 105 -4 75 -3 77 -4 36 -12 -53 -10 -65 -19 -25
-19 16 0 36 -5 44 -10 11 -7 5 -10 -25 -10 l-40 -1 39 -19 c22 -11 49 -20 60
-20 12 -1 43 -7 70 -14 44 -11 48 -14 30 -24 -17 -10 -16 -11 13 -12 17 0 33
5 35 11 3 8 10 5 21 -6 21 -20 15 -34 -7 -16 -11 9 -15 8 -20 -5 -8 -22 -8
-26 4 -19 6 3 19 3 31 0 16 -5 18 -10 8 -21 -9 -11 -6 -14 17 -14 16 0 47 -7
69 -15 l40 -14 -67 6 c-78 7 -96 -11 -23 -21 51 -8 58 -22 18 -37 -21 -8 -38
-7 -67 2 -36 12 -40 11 -56 -9 -19 -23 -37 -31 -24 -10 5 8 0 9 -17 5 -13 -4
-28 -7 -34 -7 -23 -1 54 -28 100 -34 28 -5 54 -10 59 -14 5 -3 39 -4 76 -3 50
2 70 -2 79 -13 8 -9 17 -16 22 -16 5 0 9 241 9 549 0 430 -3 550 -12 554 -10
4 -10 6 0 6 9 1 12 28 12 101 0 97 -1 100 -22 102 -13 0 -34 2 -48 3 -37 4
-213 15 -311 19 -48 3 -115 8 -149 12 l-62 7 7 36 c4 20 9 40 12 44 3 5 7 34
9 65 2 31 9 59 14 60 6 2 10 17 10 34 l0 31 19 -22 c11 -12 22 -18 25 -12 3 5
0 11 -6 14 -7 2 -10 8 -6 12 4 4 15 -3 25 -14 18 -22 67 -29 78 -11 3 6 31 10
61 10 30 0 63 5 73 11 14 10 26 8 57 -9 29 -15 62 -22 127 -25 l87 -3 0 638 0
638 -87 0 c-68 1 -84 3 -70 11 11 7 37 8 63 4 42 -6 44 -5 44 19 0 14 -4 26
-10 26 -5 0 -10 4 -10 9 0 6 15 11 33 13 32 3 32 4 35 61 l3 59 -113 -2 c-62
-1 -120 -1 -129 -1 -13 1 -15 11 -12 59 9 112 33 238 64 327 17 50 33 109 36
133 6 46 20 53 48 22 18 -20 18 -19 44 33 l26 52 3 -52 c2 -38 7 -53 18 -53
12 0 14 123 14 915 l0 915 -38 0 c-21 0 -41 -2 -43 -4z m-2216 -1133 c8 -7
-11 -33 -24 -33 -5 0 -9 9 -9 20 0 19 20 27 33 13z m285 -300 c-1 -47 -1 -47
-11 -16 -9 29 -5 63 7 63 2 0 4 -21 4 -47z m-214 -269 c39 -38 2 -47 -41 -9
l-28 24 27 1 c15 0 34 -7 42 -16z m-4 -123 c0 -14 -12 -20 -26 -14 -22 8 -17
32 6 26 11 -3 20 -9 20 -12z m-1497 -201 c5 -41 3 -38 -18 25 -13 39 -24 84
-23 100 0 24 3 20 18 -25 9 -30 20 -75 23 -100z m1885 118 c-2 -3 5 -14 14
-25 13 -14 16 -29 11 -57 l-6 -39 -19 37 c-15 29 -17 41 -7 52 9 11 8 15 -5
20 -9 3 -13 10 -10 16 6 10 28 7 22 -4z m1072 -120 c11 -18 20 -46 20 -61 l0
-29 187 8 c174 7 186 6 180 -10 -4 -10 -7 -21 -7 -25 0 -4 -89 -11 -197 -15
-195 -7 -198 -7 -216 -31 -13 -18 -28 -25 -52 -25 -38 0 -58 19 -53 52 2 18
10 23 33 24 54 1 65 4 65 15 0 7 -14 8 -41 4 l-42 -7 5 46 c10 87 79 118 118
54z m-1510 -10 c0 -18 -6 -23 -27 -25 -15 0 -44 -7 -65 -14 -30 -10 -38 -17
-38 -36 0 -14 -4 -21 -10 -18 -5 3 -10 19 -10 34 0 16 -7 34 -15 41 -25 21
-17 29 25 28 23 0 44 2 47 6 4 3 26 6 50 6 38 0 43 -3 43 -22z m-177 -20 c21
-25 22 -58 2 -58 -15 0 -41 -38 -37 -54 2 -4 -5 -14 -15 -22 -16 -12 -15 -13
14 -14 23 0 36 6 43 21 7 11 14 18 17 15 3 -3 0 -12 -6 -20 -10 -11 -8 -16 7
-20 24 -8 72 9 72 26 0 6 6 3 14 -8 11 -14 27 -19 65 -19 45 0 54 -4 75 -30
47 -58 41 -208 -9 -255 -18 -17 -30 -20 -53 -15 -17 3 -33 13 -36 21 -7 18
-35 18 -60 -1 -11 -8 -35 -15 -54 -15 -18 0 -42 -5 -53 -10 -21 -12 -23 -11
-90 51 -33 30 -39 42 -38 70 2 19 -1 40 -5 47 -4 7 -3 18 2 25 5 7 12 22 15
35 4 18 1 22 -19 22 -17 0 -24 6 -24 20 0 21 4 24 52 34 30 7 57 44 40 55 -5
3 -9 23 -7 44 1 25 -4 46 -17 62 l-19 24 53 -5 c35 -4 59 -13 71 -26z m637
-28 c0 -42 -12 -52 -28 -23 -6 11 -6 25 1 40 16 35 27 28 27 -17z m-2018 -84
c43 -78 61 -121 63 -153 2 -24 7 -49 13 -56 5 -6 12 -66 16 -132 22 -414 22
-420 -19 -375 -27 30 -38 25 -32 -14 3 -18 1 -38 -5 -44 -8 -8 -7 -16 2 -27 7
-8 10 -19 6 -22 -4 -4 -11 -2 -15 6 -7 10 -14 10 -39 -3 -17 -9 -35 -16 -40
-16 -5 0 -15 25 -22 55 -10 42 -11 64 -2 92 6 20 9 40 6 45 -3 4 -1 8 4 8 10
0 55 110 48 117 -9 9 -26 -9 -26 -27 0 -19 -25 -50 -41 -50 -5 0 -6 20 -3 44
4 26 2 46 -4 50 -11 7 -17 -17 -27 -104 -8 -73 -14 -91 -28 -88 -7 1 -22 -1
-34 -5 -20 -8 -21 -13 -17 -92 3 -54 1 -85 -6 -85 -5 0 -10 -9 -10 -21 0 -11
4 -18 9 -15 10 6 31 -37 31 -63 0 -14 -10 -21 -36 -26 -20 -3 -39 -4 -42 0 -8
8 -7 69 3 132 10 65 1 101 -28 112 -29 11 -45 63 -47 156 -3 98 -4 95 38 96
l37 1 -38 8 c-45 8 -60 20 -25 20 41 0 88 -12 83 -21 -3 -4 -1 -10 5 -14 5 -3
10 -22 10 -41 0 -56 24 -40 44 31 10 36 23 68 27 71 5 3 6 16 3 30 -5 20 -3
24 17 24 21 -1 59 -12 112 -35 14 -6 17 -2 17 20 0 14 -5 36 -12 48 -14 26
-30 108 -29 157 0 23 7 39 21 50 18 13 19 20 11 43 -6 15 -17 27 -26 27 -8 0
-15 9 -15 20 0 10 -6 39 -14 62 -22 69 -29 121 -15 116 6 -2 38 -53 71 -112z
m1250 42 c-8 -8 -12 -9 -12 -1 0 6 -3 20 -6 30 -7 17 -6 17 12 1 14 -14 16
-20 6 -30z m-37 8 c0 -18 -45 -53 -70 -55 -8 -1 -11 52 -6 77 1 2 18 2 39 0
29 -2 37 -7 37 -22z m2125 -122 c0 -3 -10 -14 -22 -25 -25 -20 -102 -26 -128
-9 -8 5 -13 10 -10 11 3 0 12 2 20 5 8 2 31 8 50 13 41 11 90 14 90 5z m-1420
-96 c0 -9 -7 -10 -37 -2 -13 4 -23 10 -23 15 0 5 7 6 15 3 10 -4 15 0 15 12 1
18 1 18 15 0 8 -11 15 -23 15 -28z m1480 -100 c0 -7 -19 -32 -42 -55 -23 -24
-37 -43 -31 -43 6 0 16 7 23 15 16 19 40 19 40 0 0 -9 -12 -18 -29 -21 -30 -6
-75 -44 -53 -44 20 0 13 -18 -15 -45 -19 -18 -36 -25 -52 -22 -13 3 -38 -3
-55 -13 -28 -15 -69 -18 -321 -21 l-290 -4 0 40 c0 39 2 41 85 97 93 62 100
65 100 43 0 -8 -4 -15 -10 -15 -20 0 -9 -29 13 -33 15 -3 12 -5 -11 -6 -22 -1
-32 -5 -30 -13 5 -15 448 -24 500 -10 55 14 46 32 -19 34 l-58 2 49 3 c42 4
58 12 119 64 72 60 87 68 87 47z m260 -12 c0 -25 -12 -46 -25 -46 -21 0 -27
17 -15 40 12 23 40 27 40 6z m-5846 -47 c42 -25 46 -32 11 -19 -24 9 -25 8
-25 -33 0 -23 5 -82 10 -131 11 -96 8 -123 -15 -123 -12 0 -15 20 -16 106 -1
58 -3 132 -5 164 -1 31 -1 57 1 57 2 0 20 -9 39 -21z m5666 12 c0 -5 -8 -11
-17 -15 -10 -3 -24 -9 -30 -12 -7 -3 -13 -1 -13 5 0 7 10 16 23 21 29 12 37
12 37 1z m200 -15 c0 -3 -4 -8 -10 -11 -5 -3 -10 -1 -10 4 0 6 5 11 10 11 6 0
10 -2 10 -4z m50 -6 c0 -5 -7 -7 -15 -4 -8 4 -15 8 -15 10 0 2 7 4 15 4 8 0
15 -4 15 -10z m-6287 -20 c24 0 28 3 17 10 -12 8 -11 10 8 10 13 0 25 -8 29
-17 13 -38 25 -45 44 -27 27 24 94 30 124 10 37 -24 35 -71 -5 -94 -16 -9 -30
-23 -30 -29 0 -18 -37 -16 -44 2 -3 8 -11 15 -17 15 -7 0 -20 7 -30 16 -19 17
-13 19 -81 -38 -28 -24 -32 -23 -67 15 -36 38 -40 78 -11 107 11 11 17 20 14
20 -3 0 -2 5 2 12 6 9 9 9 12 0 2 -7 18 -12 35 -12z m-153 -30 c0 -6 -30 -10
-70 -10 -55 0 -71 -3 -79 -17 -5 -10 -13 -15 -16 -11 -10 10 4 28 29 38 30 12
136 12 136 0z m3457 -12 c-3 -8 -6 -5 -6 6 -1 11 2 17 5 13 3 -3 4 -12 1 -19z
m2316 5 c-13 -2 -33 -2 -45 0 -13 2 -3 4 22 4 25 0 35 -2 23 -4z m-1194 -23
c34 -11 77 -30 94 -42 17 -12 61 -37 97 -55 37 -17 72 -39 79 -47 8 -9 27 -16
43 -16 22 0 43 -13 81 -50 51 -49 52 -49 37 -77 -36 -65 -109 -66 -187 -3
l-48 40 -271 0 -272 0 5 -42 c3 -36 2 -40 -8 -24 -23 37 -11 179 21 247 38 80
194 113 329 69z m-2687 -44 c-3 -22 -10 -36 -18 -36 -16 0 -19 26 -4 35 6 3
10 15 10 26 0 11 4 18 8 15 4 -3 6 -21 4 -40z m4532 -17 c-1 -34 -8 -65 -18
-82 -12 -18 -17 -41 -14 -74 3 -47 3 -48 -29 -51 -30 -3 -32 -2 -38 42 -9 56
11 207 28 218 6 5 26 7 42 6 30 -3 30 -4 29 -59z m-2370 15 c-3 -13 -1 -30 5
-38 8 -10 8 -16 -4 -26 -13 -11 -15 -5 -15 44 0 36 4 55 10 51 6 -3 7 -17 4
-31z m-4091 17 c15 -1 27 -5 27 -10 0 -5 -9 -7 -20 -4 -11 3 -40 2 -64 -1
l-45 -7 -3 -57 c-2 -45 -7 -58 -20 -60 -13 -2 -16 1 -12 12 3 8 7 37 9 63 1
26 3 53 4 58 0 6 21 10 49 8 26 -1 59 -2 75 -2z m684 -25 c-4 -9 -11 -16 -17
-16 -11 0 -14 33 -3 44 11 10 26 -11 20 -28z m751 25 c11 -6 10 -11 -3 -25
-28 -28 -64 -14 -51 19 6 16 34 19 54 6z m2692 -23 c0 -36 -9 -33 -16 6 -2 14
0 26 6 26 5 0 10 -14 10 -32z m-2800 13 c0 -11 -59 -26 -67 -18 -3 3 -2 10 2
16 8 13 65 15 65 2z m-281 -14 c13 -16 5 -27 -20 -27 -21 0 -33 15 -24 30 9
14 31 12 44 -3z m5140 -26 c11 -7 12 -23 7 -72 -4 -35 -12 -69 -17 -75 -5 -7
-12 -36 -16 -65 -6 -52 -18 -73 -35 -63 -4 3 -8 13 -8 23 0 10 -7 31 -15 48
-8 16 -18 50 -21 75 l-6 46 47 21 c45 20 47 22 31 39 -9 10 -16 22 -16 25 0
10 32 8 49 -2z m-6162 -38 c-3 -10 -5 -4 -5 12 0 17 2 24 5 18 2 -7 2 -21 0
-30z m1453 -44 c0 -81 -24 -77 -28 4 -2 46 0 57 13 57 12 0 15 -13 15 -61z
m4483 19 c22 -9 27 -16 23 -32 -4 -12 -9 -50 -13 -85 -5 -51 -10 -65 -25 -69
-10 -2 -25 -20 -33 -39 -17 -41 -71 -68 -108 -54 -12 5 -41 11 -62 12 -33 3
-41 0 -52 -21 -7 -14 -13 -38 -13 -53 0 -76 -54 -110 -117 -74 -21 12 -33 15
-33 8 0 -23 33 -62 66 -77 19 -9 34 -23 34 -31 0 -8 5 -11 10 -8 6 3 13 -1 16
-10 5 -11 10 -13 19 -5 10 8 17 5 28 -11 12 -17 21 -20 46 -14 21 4 38 1 53
-9 12 -9 32 -16 44 -16 27 0 97 -28 106 -44 6 -8 8 -7 8 2 0 6 5 12 11 12 13
0 9 -35 -26 -275 -51 -339 -51 -339 -113 -343 -33 -2 -42 0 -42 12 0 9 -5 16
-11 16 -7 0 -36 21 -66 46 -47 40 -56 44 -70 33 -9 -8 -18 -13 -20 -11 -1 1
-2 -1 0 -4 1 -3 -6 -10 -16 -16 -13 -7 -25 -5 -44 9 -14 10 -34 23 -44 29 -14
8 -16 13 -6 23 9 9 9 14 -3 21 -11 7 -2 14 35 31 28 12 61 24 75 28 21 6 25
14 26 49 1 42 0 42 -40 49 -35 5 -37 7 -17 15 13 4 27 6 32 2 5 -3 9 0 9 5 0
6 -8 12 -17 13 -10 1 20 4 67 7 l85 6 3 42 c3 34 -2 47 -20 65 -13 13 -22 31
-20 41 3 15 -1 17 -27 12 -21 -4 -31 -1 -31 7 0 9 -3 8 -10 -2 -8 -12 -34 -15
-142 -13 -143 1 -126 -9 35 -22 63 -6 87 -11 87 -21 0 -11 -27 -14 -135 -14
-74 0 -138 -1 -142 -2 -5 -2 -9 9 -11 25 -3 23 -8 27 -35 28 -18 0 -242 0
-499 0 l-466 0 -4 63 c-2 53 -1 62 13 59 16 -4 256 51 266 61 4 3 -60 6 -140
5 -81 0 -151 2 -156 5 -5 3 -15 -1 -22 -10 -10 -12 -10 -20 -1 -35 16 -25 15
-28 -7 -22 -23 6 -31 31 -31 96 0 30 -4 46 -10 42 -12 -7 -33 42 -24 56 3 5
35 9 71 9 55 0 66 3 70 19 5 21 27 24 343 41 189 10 548 3 566 -12 9 -6 9 -16
1 -38 -11 -29 -14 -30 -77 -31 -110 -1 -25 -17 96 -18 59 0 109 -3 112 -6 3
-3 -14 -5 -37 -5 -34 0 -42 -3 -38 -15 4 -8 2 -17 -4 -21 -6 -3 -8 -13 -5 -21
3 -8 1 -11 -4 -8 -6 3 -10 2 -10 -3 0 -5 -32 -10 -71 -11 -54 -1 -74 2 -83 14
-9 12 -11 9 -14 -22 -4 -62 -23 -59 -27 4 -3 52 -2 49 -33 62 -25 11 -288 14
-278 3 3 -2 1 -15 -4 -28 -11 -28 -5 -31 16 -9 23 22 256 22 278 -1 9 -8 16
-17 16 -20 0 -2 -46 -5 -102 -5 -206 -2 -202 -1 -208 -28 -7 -33 -30 -39 -30
-8 0 27 -16 38 -46 32 -11 -2 -32 -4 -47 -4 -16 -1 -25 -5 -22 -11 3 -5 -12
-12 -35 -16 -22 -4 -40 -11 -40 -16 0 -5 6 -8 13 -7 30 4 47 -2 47 -16 0 -8 5
-15 11 -15 5 0 7 5 4 10 -3 6 1 18 10 27 16 16 18 16 27 0 5 -10 13 -15 19
-12 5 4 9 1 9 -4 0 -7 39 -11 108 -12 59 -1 97 -4 85 -6 -13 -2 -23 -10 -23
-18 0 -10 25 -13 103 -15 121 -2 144 -4 153 -13 11 -11 56 -8 49 3 -8 13 15
13 35 0 12 -8 12 -10 1 -10 -8 0 -12 -2 -10 -5 8 -8 49 7 43 16 -3 5 20 9 50
9 31 0 56 4 56 9 0 7 80 8 210 3 35 -2 42 -5 30 -13 -12 -8 -10 -9 8 -4 15 4
35 -1 59 -15 19 -11 37 -20 38 -18 1 2 5 17 8 35 6 30 3 35 -53 74 -68 48 -74
49 -79 23 -2 -10 -13 -28 -25 -40 -19 -19 -32 -21 -116 -20 l-95 1 -7 54 c-8
70 -3 83 31 74 14 -4 33 -6 41 -6 44 3 60 9 60 20 0 9 -7 10 -24 3 -20 -7 -25
-5 -29 11 -5 17 0 19 39 19 46 0 52 6 32 32 -16 20 -118 36 -118 18 0 -6 -5
-8 -10 -5 -6 4 -8 16 -4 27 5 16 3 20 -10 15 -8 -3 -18 -2 -21 3 -4 6 2 10 12
10 16 1 16 2 3 13 -12 10 -14 40 -12 174 l3 163 200 2 c261 4 377 0 412 -14z
m-5936 -30 c-3 -7 -5 -2 -5 12 0 14 2 19 5 13 2 -7 2 -19 0 -25z m687 -3 c-4
-8 -8 -15 -10 -15 -2 0 -4 7 -4 15 0 8 4 15 10 15 5 0 7 -7 4 -15z m1219 8 c2
-5 7 -21 11 -37 l7 -28 -25 28 c-23 27 -25 44 -6 44 5 0 11 -3 13 -7z m4109
-20 c-3 -16 -7 -22 -10 -15 -4 13 4 42 11 42 2 0 2 -12 -1 -27z m-4936 -25
c-55 -7 -82 -6 -89 1 -8 8 14 11 79 10 l89 -2 -79 -9z m324 8 c0 -3 -4 -8 -10
-11 -5 -3 -10 -1 -10 4 0 6 5 11 10 11 6 0 10 -2 10 -4z m-350 -44 c0 -5 -22
-9 -50 -10 -27 0 -50 3 -50 9 0 5 23 9 50 9 28 0 50 -4 50 -8z m770 -47 c0
-25 -4 -45 -10 -45 -5 0 -10 20 -10 45 0 25 5 45 10 45 6 0 10 -20 10 -45z
m135 36 c7 -12 -12 -24 -25 -16 -11 7 -4 25 10 25 5 0 11 -4 15 -9z m4372 -13
c-3 -8 -6 -5 -6 6 -1 11 2 17 5 13 3 -3 4 -12 1 -19z m-1167 2 c-20 -13 -70
-13 -70 0 0 6 19 10 43 10 31 0 38 -3 27 -10z m-1910 -19 c0 -10 11 -26 25
-35 14 -9 25 -21 25 -26 0 -5 5 -21 12 -37 20 -50 -1 -113 -39 -113 -7 0 -13
-7 -13 -15 0 -8 7 -15 15 -15 22 0 18 -21 -5 -27 -22 -6 -25 -14 -10 -29 13
-13 -15 -74 -33 -74 -7 0 -6 4 3 10 13 8 12 10 -2 10 -10 0 -18 -7 -18 -16 0
-13 -2 -13 -13 -2 -7 7 -16 21 -20 31 -4 10 -11 15 -17 12 -12 -8 -13 -35 -1
-35 11 0 8 -43 -8 -99 -10 -36 -10 -45 1 -52 10 -7 9 -9 -3 -9 -12 0 -19 -13
-24 -47 -6 -37 -9 -43 -15 -28 -6 16 -9 11 -14 -22 -6 -32 -2 -60 13 -106 20
-63 23 -175 5 -222 -6 -17 -38 -55 -46 -55 -4 0 -7 28 -14 115 -3 50 -2 66 5
55 8 -11 11 -3 12 35 5 207 51 570 79 640 5 11 12 31 16 45 3 14 15 33 25 43
17 16 24 42 20 75 -1 6 7 12 19 12 13 0 20 -7 20 -19z m-2704 -47 c18 -72 -28
-1039 -50 -1062 -4 -3 -13 4 -22 16 -11 17 -19 19 -37 13 -38 -15 -87 42 -99
113 -2 12 -19 24 -51 34 -55 17 -52 28 19 63 41 19 45 24 42 53 -2 24 -8 32
-26 34 -13 2 -27 14 -32 28 -11 27 -23 30 -42 10 -8 -8 -28 -12 -53 -10 -22 2
-34 1 -27 -2 20 -9 14 -30 -10 -31 -13 -1 -33 4 -45 12 -36 24 -53 19 -53 -14
0 -17 5 -33 10 -36 6 -3 10 -1 10 4 0 6 11 11 25 11 24 0 29 -9 28 -47 -1 -7
5 -13 13 -13 8 0 14 -6 14 -12 0 -8 -14 -13 -38 -12 -65 2 -66 2 -52 19 13 15
1 35 -55 90 -6 6 -11 22 -11 38 -2 32 -25 29 258 31 109 1 200 5 204 8 19 20
-16 28 -116 28 -88 0 -109 3 -114 16 -3 8 -2 13 3 10 5 -3 14 1 21 9 7 8 16
12 21 9 5 -3 9 0 9 6 0 8 10 9 29 5 21 -4 30 -2 35 10 8 22 1 32 -29 39 -19 5
-31 1 -48 -16 -23 -24 -47 -34 -47 -19 0 5 7 11 15 15 21 8 19 23 -10 54 -14
15 -25 36 -25 48 0 25 -24 49 -40 39 -5 -3 -10 -2 -10 4 0 5 5 11 11 13 18 6
-2 38 -25 38 -11 0 -31 3 -43 6 -15 4 -23 2 -23 -6 0 -16 -26 -40 -43 -40 -8
0 -17 -6 -20 -14 -4 -9 -14 -12 -26 -9 -38 10 -71 -5 -71 -32 0 -31 3 -31 42
-2 22 16 32 18 35 10 11 -30 63 -6 63 28 0 9 7 20 16 23 36 14 54 5 74 -34 12
-23 27 -43 35 -47 21 -7 21 -109 1 -116 -8 -3 -20 0 -26 8 -8 10 -7 16 6 23
32 18 7 30 -38 19 -53 -14 -56 -16 -39 -27 9 -5 11 -15 7 -26 -5 -14 -9 -15
-15 -6 -5 9 -15 6 -35 -13 -28 -26 -51 -31 -75 -16 -8 5 -22 6 -30 1 -9 -4
-63 -10 -120 -11 l-104 -4 6 155 c3 85 9 164 12 175 5 18 16 21 72 22 36 2 79
9 96 18 16 8 37 15 47 15 9 0 21 5 27 11 13 13 43 5 43 -11 0 -5 -12 -10 -27
-11 l-28 -1 25 -8 c14 -4 42 -8 63 -9 20 -1 37 -5 37 -11 0 -5 9 -10 20 -10
11 0 20 4 20 10 0 5 7 7 15 4 9 -4 29 -1 46 6 34 14 26 25 -25 34 -30 5 -48
16 -28 16 7 0 12 7 12 15 0 13 4 14 20 5 11 -6 20 -7 20 -3 0 4 5 2 12 -5 15
-15 32 -16 23 -2 -3 6 -1 10 4 10 6 0 11 -6 11 -13 0 -11 26 -14 111 -16 88
-2 110 1 107 11 -4 9 -31 13 -99 14 -92 0 -143 8 -165 25 -5 4 -10 34 -10 66
l1 58 50 2 c71 3 79 -1 60 -30 -14 -22 -14 -25 0 -37 20 -16 25 -11 29 32 2
19 6 40 10 47 4 7 0 11 -11 11 -10 0 -27 7 -37 15 -18 14 -18 15 8 25 15 5 45
7 67 4 32 -5 39 -11 39 -29 0 -12 11 -32 24 -45 l25 -23 5 24 c3 13 7 36 10
51 4 17 16 30 33 36 40 15 42 15 49 -14z m-676 -14 c0 -5 -7 -7 -15 -4 -11 4
-15 -1 -16 -17 0 -23 -1 -23 -9 -4 -13 31 -12 35 15 35 14 0 25 -4 25 -10z
m160 0 c0 -5 -7 -10 -15 -10 -8 0 -15 5 -15 10 0 6 7 10 15 10 8 0 15 -4 15
-10z m210 2 c0 -14 -92 -25 -130 -17 -52 11 -33 21 50 24 47 1 80 -2 80 -7z
m1634 -4 c17 -55 16 -68 -5 -68 -30 0 -99 22 -99 31 0 5 15 11 34 15 19 3 37
12 40 20 7 17 25 18 30 2z m4334 -10 c-3 -7 -15 -13 -28 -13 -13 0 -25 6 -27
13 -3 8 6 12 27 12 21 0 30 -4 28 -12z m-3798 -22 c0 -23 -2 -24 -129 -31
-141 -8 -171 -3 -171 25 0 22 25 25 198 28 101 2 102 2 102 -22z m-2515 4 c11
-5 14 -9 8 -9 -24 -2 -13 -21 11 -21 29 0 42 -16 27 -34 -17 -20 16 -59 44
-52 18 5 25 0 35 -24 7 -17 11 -32 9 -35 -6 -5 -73 -5 -164 0 -46 3 -79 0 -97
-10 -27 -13 -28 -13 -28 13 0 57 10 72 41 65 27 -5 29 -4 29 28 0 44 12 62 35
53 14 -6 17 -4 12 8 -10 27 3 33 38 18z m2895 -77 c0 -27 3 -34 9 -24 14 22
41 -4 41 -40 0 -44 -62 -67 -90 -34 -9 11 -16 13 -24 5 -13 -13 -46 -13 -46 0
0 6 -7 10 -15 10 -21 0 -19 -12 6 -34 14 -12 29 -16 46 -11 19 4 26 1 30 -15
6 -24 27 -25 67 -5 15 8 30 15 32 15 6 0 3 -133 -4 -157 -10 -32 -51 -75 -68
-71 -8 2 -30 30 -47 63 -18 33 -35 62 -39 63 -5 2 -8 15 -8 28 0 17 -6 24 -20
24 -14 0 -19 -6 -17 -19 1 -11 -2 -20 -7 -20 -5 -1 -11 16 -12 37 -1 21 -4 60
-5 87 l-4 50 40 5 c44 6 78 26 101 59 22 31 34 26 34 -16z m3323 12 c-7 -21
-13 -19 -13 6 0 11 4 18 10 14 5 -3 7 -12 3 -20z m-4008 -91 c12 -29 18 -34
29 -25 11 9 17 6 30 -14 12 -19 25 -25 51 -25 19 0 35 5 35 10 0 6 5 10 10 10
6 0 10 -7 10 -16 0 -10 8 -15 23 -13 12 1 29 -1 37 -4 20 -8 80 -18 108 -19
15 0 22 -6 22 -20 0 -15 -5 -19 -20 -15 -11 3 -23 1 -26 -4 -3 -5 -16 -9 -30
-9 -13 0 -24 -4 -24 -10 0 -5 7 -10 16 -10 11 0 15 -6 11 -20 -3 -11 -1 -20 4
-20 5 0 9 -10 9 -21 0 -18 2 -19 15 -9 12 10 15 9 15 -7 0 -10 -5 -24 -10 -29
-7 -7 -4 -10 11 -10 17 1 24 -7 32 -34 6 -22 5 -41 -1 -51 -9 -13 -5 -16 19
-17 16 0 33 -4 39 -7 15 -9 1 -26 -18 -23 -18 3 -19 -8 -6 -49 5 -17 2 -23
-10 -23 -11 0 -16 9 -16 30 0 33 -24 50 -43 31 -16 -16 -52 -14 -67 4 -14 17
-70 21 -70 5 0 -5 4 -10 10 -10 11 0 50 -40 50 -52 0 -4 -20 -17 -45 -28 -41
-19 -47 -19 -74 -5 -17 8 -37 12 -45 9 -9 -4 -23 -1 -30 5 -10 8 -16 9 -21 1
-11 -17 -25 -11 -25 11 0 15 5 19 15 15 9 -3 27 4 41 16 l25 22 -23 18 c-21
15 -21 17 -5 23 21 9 22 34 2 41 -17 7 -21 54 -5 54 6 0 14 -10 19 -22 7 -20
8 -19 14 11 4 18 4 37 1 42 -7 12 -34 11 -34 -1 0 -16 -27 -12 -34 5 -3 8 -3
22 0 30 4 8 1 15 -5 15 -17 0 -13 19 9 43 l21 22 -32 8 c-40 11 -59 -5 -41
-33 10 -17 10 -21 -3 -26 -8 -4 -15 -13 -15 -22 0 -8 -6 -23 -14 -31 -16 -18
-29 -128 -16 -136 4 -3 15 6 24 20 20 30 36 33 29 5 -4 -16 0 -20 21 -20 15 0
26 -6 26 -14 0 -9 -18 -15 -51 -19 -55 -7 -70 -14 -52 -25 6 -4 9 -19 6 -35
-4 -20 -11 -27 -29 -27 -22 0 -24 4 -24 53 0 28 5 70 10 92 5 23 12 69 14 103
3 34 8 73 12 86 6 26 -5 31 -91 38 -39 4 -50 45 -13 52 25 5 109 17 148 21 14
1 24 6 24 11 -1 5 -5 26 -8 47 -9 48 9 49 29 1z m-982 19 c-13 -2 -33 -2 -45
0 -13 2 -3 4 22 4 25 0 35 -2 23 -4z m1317 -3 c0 -5 -5 -10 -11 -10 -5 0 -7 5
-4 10 3 6 8 10 11 10 2 0 4 -4 4 -10z m1756 -27 c-11 -11 -19 6 -11 24 8 17 8
17 12 0 3 -10 2 -21 -1 -24z m-1786 17 c0 -5 -11 -10 -24 -10 -14 0 -28 5 -31
10 -4 6 7 10 24 10 17 0 31 -4 31 -10z m-2314 -52 c-36 -11 -46 -9 -39 8 9 24
47 35 54 15 4 -11 -1 -18 -15 -23z m629 -17 c8 -14 -13 -24 -33 -16 -14 5 -14
7 -2 15 19 12 27 12 35 1z m3332 -183 c-2 -35 -3 -9 -3 57 0 66 1 94 3 63 2
-32 2 -86 0 -120z m-2625 29 c-7 -64 -32 -39 -32 32 0 21 3 41 7 44 12 13 29
-39 25 -76z m1803 73 c3 -5 1 -10 -4 -10 -6 0 -11 5 -11 10 0 6 2 10 4 10 3 0
8 -4 11 -10z m-1334 -41 c21 -21 21 -28 15 -128 -9 -153 -18 -201 -37 -201 -9
0 -14 99 -10 168 2 19 -3 47 -9 63 -10 23 -10 32 0 44 7 9 9 26 5 45 -8 36 6
39 36 9z m3127 -36 c-10 -2 -28 -2 -40 0 -13 2 -5 4 17 4 22 1 32 -1 23 -4z
m-3749 -84 c-17 -9 -327 -14 -336 -5 -9 9 39 16 136 19 130 3 219 -3 200 -14z
m2805 -474 c4 -88 11 -211 17 -274 5 -63 8 -116 5 -118 -12 -12 -33 326 -40
642 -4 198 -4 204 4 65 4 -85 11 -227 14 -315z m-1936 424 c12 -19 11 -19 -7
-10 -26 14 -36 31 -19 31 7 0 19 -9 26 -21z m3522 -23 c-14 -14 -22 -2 -14 18
5 14 9 15 15 4 4 -7 4 -17 -1 -22z m-30 4 c0 -5 -5 -10 -11 -10 -5 0 -7 5 -4
10 3 6 8 10 11 10 2 0 4 -4 4 -10z m-2480 -14 c0 -3 -4 -8 -10 -11 -5 -3 -10
-1 -10 4 0 6 5 11 10 11 6 0 10 -2 10 -4z m11 -39 c-1 -12 -15 -9 -19 4 -3 6
1 10 8 8 6 -3 11 -8 11 -12z m-1209 -33 c-4 -32 -25 -55 -38 -41 -7 7 25 77
35 77 4 0 5 -16 3 -36z m168 20 c0 -8 -4 -12 -10 -9 -5 3 -10 10 -10 16 0 5 5
9 10 9 6 0 10 -7 10 -16z m2120 -56 c0 -16 -3 -18 -14 -9 -15 13 -27 61 -19
74 7 11 33 -40 33 -65z m-1190 27 l0 -35 -130 0 c-106 0 -130 3 -130 14 0 12
29 27 100 50 8 2 48 5 88 5 l72 1 0 -35z m528 -2 c-2 -23 -8 -29 -35 -31 -31
-3 -33 -1 -33 27 0 29 3 31 36 31 33 0 35 -2 32 -27z m-3698 -21 c88 -3 142
-62 85 -92 -14 -7 -25 -19 -25 -27 0 -7 -7 -13 -15 -13 -10 0 -15 -10 -15 -27
0 -21 -3 -24 -9 -14 -15 24 -64 -4 -96 -55 -21 -33 -34 -44 -49 -42 -19 3 -21
8 -17 71 3 61 1 67 -15 60 -15 -5 -16 -2 -11 26 4 18 2 41 -3 52 -6 10 -8 29
-5 42 7 25 13 26 175 19z m324 -37 c-4 -8 -8 -15 -10 -15 -2 0 -4 7 -4 15 0 8
4 15 10 15 5 0 7 -7 4 -15z m5842 -20 c-8 -22 33 -20 50 2 7 10 16 15 20 11 4
-4 1 -14 -6 -23 -10 -13 -9 -15 8 -15 11 0 25 7 32 15 20 24 30 18 30 -18 0
-21 -8 -41 -20 -52 -17 -16 -25 -17 -57 -7 -27 8 -40 8 -50 0 -13 -10 -17 1
-16 40 1 6 -3 12 -8 12 -10 0 -12 34 -2 43 12 13 25 7 19 -8z m-5857 -57 c1
-5 -3 -8 -9 -8 -5 0 -10 12 -9 28 0 24 1 25 9 7 5 -11 9 -23 9 -27z m67 -25
c-11 -11 -19 6 -11 24 8 17 8 17 12 0 3 -10 2 -21 -1 -24z m1009 19 c6 -1 3
-7 -5 -12 -20 -13 -317 -13 -325 0 -7 11 276 22 330 12z m185 -6 c0 -3 -4 -8
-10 -11 -5 -3 -10 -1 -10 4 0 6 5 11 10 11 6 0 10 -2 10 -4z m-1460 -26 c0 -5
-4 -10 -10 -10 -5 0 -10 5 -10 10 0 6 5 10 10 10 6 0 10 -4 10 -10z m4462 -59
c154 -66 178 -81 178 -112 0 -25 -11 -36 -100 -94 -56 -36 -103 -65 -105 -65
-4 0 -12 82 -19 208 -3 45 -4 82 -2 82 3 0 24 -8 48 -19z m983 -1 c-3 -5 -12
-10 -18 -10 -7 0 -6 4 3 10 19 12 23 12 15 0z m-5222 -27 c-14 -41 -34 -53
-78 -46 -33 4 -43 2 -48 -11 -8 -21 -26 -20 -50 1 -18 17 -19 17 -32 0 -18
-25 -21 -21 -17 18 l4 35 87 0 c47 0 93 5 101 10 24 16 40 12 33 -7z m2904
-119 c4 -17 -5 -28 -41 -52 -41 -28 -46 -29 -46 -12 0 10 9 34 20 54 15 24 18
36 9 41 -6 4 -15 1 -20 -6 -13 -21 -11 5 3 36 8 18 14 22 19 13 6 -9 10 -8 15
6 6 15 10 11 21 -21 8 -21 17 -48 20 -59z m2063 36 c0 -11 -4 -20 -10 -20 -5
0 -10 9 -10 20 0 11 5 20 10 20 6 0 10 -9 10 -20z m-100 -38 c0 -5 9 -117 21
-248 11 -131 21 -255 22 -274 l2 -35 -47 0 c-53 0 -66 -8 -49 -29 8 -10 9 -16
1 -21 -6 -3 -8 -10 -5 -15 3 -4 -2 -14 -11 -21 -10 -8 -13 -21 -9 -36 4 -16 1
-23 -10 -23 -8 0 -15 -7 -15 -15 0 -11 -10 -13 -52 -8 -29 3 -54 10 -56 15 -2
4 -16 8 -32 8 l-28 0 -2 88 c-1 48 -5 110 -9 137 -6 37 -9 7 -11 -120 -2 -106
-5 -149 -9 -115 -6 51 -8 55 -33 58 -28 3 -28 2 -28 -52 0 -52 11 -78 25 -56
3 5 11 10 18 10 20 0 -16 -26 -59 -43 -22 -8 -93 -41 -158 -72 -64 -32 -119
-55 -122 -52 -3 2 9 9 25 15 40 14 40 32 1 32 l-30 0 0 83 c0 125 1 124 -82
129 -38 3 -74 10 -79 15 -5 5 -6 30 -3 56 5 34 11 47 23 47 14 0 14 -2 1 -10
-13 -8 -12 -10 3 -10 9 0 17 4 17 8 0 9 36 7 83 -4 23 -5 29 -3 34 15 7 27 54
29 79 4 14 -15 36 -18 118 -18 l101 -1 5 -34 c4 -26 11 -36 26 -38 13 -2 22 3
24 15 2 10 3 151 3 313 0 163 2 256 6 208 3 -47 9 -89 13 -93 10 -10 28 4 28
21 0 20 22 42 38 36 6 -2 12 1 12 7 0 6 6 11 14 11 8 0 30 9 48 20 45 26 82
10 85 -38 1 -18 6 -39 12 -46 16 -19 9 -88 -12 -111 -11 -12 -16 -27 -12 -40
4 -11 8 -31 11 -45 4 -25 4 -25 -4 -1 -6 19 -9 21 -19 10 -7 -10 -8 -22 -1
-39 6 -14 12 -40 14 -59 2 -19 7 -37 12 -40 5 -3 11 -14 15 -23 15 -41 26 -14
25 57 -1 42 -6 75 -11 75 -6 0 2 10 17 23 14 13 23 26 20 30 -4 4 -14 1 -22
-6 -13 -10 -14 -8 -8 11 3 12 8 30 11 41 3 10 -1 24 -10 31 -19 16 -20 34 0
26 8 -3 15 -1 15 4 0 6 -3 10 -7 10 -5 0 -7 52 -5 115 2 63 7 115 13 115 5 0
9 -4 9 -8z m-5040 -42 c0 -4 10 -10 22 -14 31 -7 9 -29 -23 -23 -20 4 -19 4 6
6 l30 1 -29 15 c-15 8 -35 15 -42 15 -8 0 -14 4 -14 9 0 4 11 6 25 3 14 -2 25
-8 25 -12z m1598 -7 c5 -17 -26 -29 -40 -15 -6 6 -7 15 -3 22 9 14 37 9 43 -7z
m1184 -18 c3 -14 1 -25 -3 -25 -5 0 -9 11 -9 25 0 14 2 25 4 25 2 0 6 -11 8
-25z m3093 5 c4 -6 -6 -10 -22 -9 -25 0 -26 1 -8 9 11 5 21 9 22 9 1 1 5 -3 8
-9z m-1195 -30 c0 -5 -8 -10 -17 -10 -15 0 -16 2 -3 10 19 12 20 12 20 0z
m-1601 -22 c0 -22 -1 -22 -9 -3 l-9 20 -1 -20 c-2 -11 -2 -26 -1 -33 1 -7 -7
-24 -17 -37 -11 -14 -23 -41 -26 -60 -4 -19 -11 -35 -16 -35 -6 0 -10 -15 -11
-32 -1 -31 -1 -32 -9 -8 -10 31 -12 146 -4 188 6 32 18 38 77 41 22 1 27 -3
26 -21z m1559 3 c11 -6 10 -11 -3 -25 -19 -19 -31 -20 -73 -5 -36 12 -65 1
-67 -27 -2 -11 -6 -28 -10 -39 -7 -18 -6 -18 14 3 12 12 27 22 34 21 9 0 9 -2
0 -6 -7 -2 -13 -11 -13 -18 0 -15 -35 -30 -49 -21 -5 3 -11 -4 -15 -17 l-6
-22 -15 22 c-14 19 -14 26 -2 56 15 34 65 67 104 67 10 0 25 5 33 10 18 12 51
13 68 1z m1572 -17 c74 -4 167 -10 205 -14 68 -8 67 -8 -40 -8 -60 -1 -145 -3
-188 -6 -57 -3 -76 -1 -71 7 3 7 -1 4 -9 -6 -12 -14 -20 -15 -41 -7 -30 11
-35 25 -6 17 11 -3 18 -1 14 4 -3 5 -21 9 -40 9 -19 0 -34 5 -34 11 0 8 13 10
38 6 20 -4 98 -9 172 -13z m-4480 -18 c0 -3 -4 -8 -10 -11 -5 -3 -10 -1 -10 4
0 6 5 11 10 11 6 0 10 -2 10 -4z m3490 -12 c0 -8 -5 -12 -10 -9 -6 4 -8 11 -5
16 9 14 15 11 15 -7z m-2572 -35 c2 -27 -3 -40 -28 -64 -33 -32 -38 -45 -15
-45 8 0 15 -7 15 -16 0 -11 -8 -14 -27 -12 -41 5 -54 49 -25 86 12 15 29 42
37 60 18 42 39 37 43 -9z m99 35 c-3 -3 -12 -4 -19 -1 -8 3 -5 6 6 6 11 1 17
-2 13 -5z m1597 -19 c6 -18 -7 -27 -28 -19 -16 6 -21 25 -10 37 9 8 32 -2 38
-18z m226 15 c8 -5 11 -12 7 -16 -4 -4 -15 0 -24 9 -18 18 -8 23 17 7z m-3837
-21 c7 -26 -3 -89 -14 -89 -5 0 -9 25 -9 55 0 55 13 74 23 34z m5660 14 c-7
-2 -21 -2 -30 0 -10 3 -4 5 12 5 17 0 24 -2 18 -5z m-4613 -39 c0 -41 -16 -77
-31 -68 -6 4 -4 15 6 31 14 20 15 31 6 49 -8 19 -8 24 4 24 10 0 15 -11 15
-36z m-2000 -9 c0 -8 -9 -15 -20 -15 -15 0 -22 -9 -26 -30 -4 -16 -10 -30 -14
-30 -13 0 -52 69 -45 80 3 5 28 10 56 10 37 0 49 -4 49 -15z m760 5 c0 -6 -11
-15 -25 -20 -15 -6 -25 -17 -25 -30 0 -30 -15 -24 -33 13 -15 30 -15 33 1 39
27 10 82 9 82 -2z m3820 -11 c0 -5 -4 -7 -10 -4 -5 3 -10 1 -10 -4 0 -6 5 -11
11 -11 5 0 7 -5 3 -11 -10 -16 -28 6 -21 25 7 18 27 22 27 5z m-2634 -35 c-3
-9 -6 -23 -6 -32 0 -14 -2 -14 -9 -3 -10 16 -3 51 11 51 6 0 7 -7 4 -16z
m2968 -26 c3 -21 7 -42 8 -49 2 -7 -19 -13 -57 -15 -33 -2 -77 -6 -97 -9 -36
-5 -59 7 -38 20 6 4 8 10 5 15 -7 11 68 19 80 9 5 -5 14 -9 20 -9 5 0 3 5 -5
10 -13 8 -13 11 0 24 15 15 72 47 76 43 1 -1 5 -19 8 -39z m-173 -92 l79 7 1
-49 c2 -88 2 -88 34 -96 17 -4 -26 -4 -95 -1 -69 3 -128 7 -132 10 -5 2 -8 43
-8 90 l0 86 21 -27 c21 -27 23 -27 100 -20z m-454 2 c-3 -7 -5 -2 -5 12 0 14
2 19 5 13 2 -7 2 -19 0 -25z m10 -50 c-3 -7 -5 -2 -5 12 0 14 2 19 5 13 2 -7
2 -19 0 -25z m-2532 -58 c3 -5 -1 -10 -9 -10 -9 0 -16 5 -16 10 0 6 4 10 9 10
6 0 13 -4 16 -10z m-415 -4 c0 -9 -30 -14 -35 -6 -4 6 3 10 14 10 12 0 21 -2
21 -4z m2227 -50 c-4 -9 2 -14 16 -13 12 0 54 -5 92 -11 39 -6 102 -9 141 -7
l70 4 -12 -77 c-16 -93 -18 -211 -4 -246 7 -21 6 -26 -5 -26 -8 0 -18 -12 -21
-27 -5 -20 -2 -30 14 -43 14 -12 17 -21 11 -31 -11 -17 -1 -79 16 -99 7 -8 16
-32 19 -53 3 -21 11 -48 17 -59 17 -31 -18 -100 -46 -91 -11 3 -24 6 -30 5 -5
0 -39 -3 -75 -5 -36 -3 -78 -7 -95 -9 -16 -3 -23 -3 -13 -1 22 6 30 29 9 29
-128 1 -153 4 -158 24 -3 11 -8 20 -12 20 -3 0 -6 54 -6 120 0 107 2 120 17
120 47 0 24 91 -28 110 -13 5 -24 14 -24 19 0 6 14 48 30 93 17 46 37 115 45
153 22 105 25 115 31 115 3 0 4 -6 1 -14z m823 -29 c0 6 7 13 15 17 12 4 13 2
6 -13 -6 -10 -9 -20 -7 -22 9 -10 16 -139 8 -139 -6 0 -19 35 -31 78 -25 94
-27 115 -6 88 8 -11 15 -15 15 -9z m2170 -107 c0 -5 -10 -10 -22 -10 -19 0
-20 2 -8 10 19 13 30 13 30 0z m-1384 -70 c24 0 44 -4 44 -9 0 -4 -12 -6 -26
-3 -24 4 -26 2 -19 -19 4 -13 15 -31 25 -40 14 -12 16 -19 7 -28 -8 -8 -6 -11
10 -11 11 0 34 -7 49 -15 16 -8 45 -18 65 -21 30 -5 36 -10 32 -25 -4 -13 0
-19 10 -19 8 0 23 -3 31 -6 12 -4 15 -2 11 9 -4 8 1 17 10 21 20 7 38 -2 30
-15 -4 -5 1 -9 10 -9 9 0 13 -4 10 -10 -3 -5 -20 -10 -36 -10 -58 0 -116 -48
-61 -51 14 0 14 -2 -3 -10 -16 -7 -12 -8 15 -5 19 3 53 1 75 -3 24 -5 -103 -9
-321 -10 l-362 -1 -6 25 c-4 14 -11 25 -17 25 -6 0 -9 -7 -5 -15 4 -10 -1 -15
-16 -15 -16 0 -18 3 -9 14 9 10 8 15 -4 20 -8 3 -15 12 -15 19 0 10 -9 13 -27
10 -21 -3 -18 0 11 11 42 16 69 36 47 36 -7 0 -9 5 -6 10 3 6 13 10 21 10 8 0
12 -4 9 -10 -8 -13 -2 -13 30 2 14 6 24 16 22 21 -2 6 29 26 67 46 39 20 73
39 74 43 2 5 13 8 24 8 17 0 18 3 8 15 -10 12 -2 15 52 17 35 2 69 3 76 1 8
-2 34 -3 58 -3z m-743 -140 c3 -11 2 -18 -3 -15 -4 3 -10 14 -13 25 -3 11 -2
18 3 15 4 -3 10 -14 13 -25z m46 -105 c0 -5 -6 1 -14 15 -8 14 -14 30 -14 35
0 6 6 -1 14 -15 8 -14 14 -29 14 -35z m28 39 c-3 -3 -12 -4 -19 -1 -8 3 -5 6
6 6 11 1 17 -2 13 -5z m978 -32 l-40 -4 30 -13 30 -13 -32 -1 c-18 -1 -33 4
-33 9 0 6 -7 10 -15 10 -8 0 -15 5 -15 10 0 6 25 9 58 8 47 -1 50 -2 17 -6z
m-768 -48 c-3 -3 -12 -4 -19 -1 -8 3 -5 6 6 6 11 1 17 -2 13 -5z m46 -1 c-7
-2 -19 -2 -25 0 -7 3 -2 5 12 5 14 0 19 -2 13 -5z m1632 -13 c3 -5 -3 -10 -14
-10 -11 0 -23 5 -26 10 -3 6 3 10 14 10 11 0 23 -4 26 -10z m-3234 -57 c-12
-20 -14 -14 -5 12 4 9 9 14 11 11 3 -2 0 -13 -6 -23z m2219 -8 c0 -19 -22 -68
-35 -77 -6 -5 -6 -8 1 -8 6 0 14 -14 18 -32 3 -17 18 -46 31 -64 l26 -33 -218
5 c-120 2 -234 7 -253 11 -34 5 -137 5 -191 -1 l-27 -3 21 34 c25 43 27 107 5
151 l-16 32 319 0 c272 0 319 -2 319 -15z m-2271 -34 c19 -12 6 -28 -28 -33
-17 -2 -28 -1 -25 4 3 4 15 9 27 9 17 1 18 2 4 6 -9 2 -15 9 -12 14 8 11 16
11 34 0z m1415 -66 c5 -22 4 -26 -4 -15 -5 8 -10 24 -10 34 0 26 6 18 14 -19z
m-1444 5 c-8 -5 -26 -9 -40 -9 l-25 1 25 8 c14 4 32 8 40 9 13 1 13 0 0 -9z
m1470 -75 c0 -5 -5 -3 -10 5 -5 8 -10 20 -10 25 0 6 5 3 10 -5 5 -8 10 -19 10
-25z m-443 -11 c-3 -3 -12 -4 -19 -1 -8 3 -5 6 6 6 11 1 17 -2 13 -5z m368
-14 c-3 -5 -15 -10 -26 -10 -10 0 -19 5 -19 10 0 6 12 10 26 10 14 0 23 -4 19
-10z m-155 -4 c0 -3 -4 -8 -10 -11 -5 -3 -10 -1 -10 4 0 6 5 11 10 11 6 0 10
-2 10 -4z m271 -47 c-10 -23 -10 -23 -10 7 -1 17 2 34 7 38 11 12 14 -18 3
-45z m-2141 -11 c0 -19 -6 -23 -35 -25 -19 -1 -35 3 -35 9 0 5 6 8 13 5 7 -3
19 4 25 14 16 26 32 24 32 -3z m-90 2 c0 -5 -6 -10 -14 -10 -8 0 -18 5 -21 10
-3 6 3 10 14 10 12 0 21 -4 21 -10z m343 3 c-7 -2 -19 -2 -25 0 -7 3 -2 5 12
5 14 0 19 -2 13 -5z m1367 -15 c0 -10 -67 -11 -73 0 -3 4 13 7 34 7 21 1 39
-3 39 -7z m-1383 -14 c-3 -3 -12 -4 -19 -1 -8 3 -5 6 6 6 11 1 17 -2 13 -5z"/>
<path d="M6210 2768 c-12 -22 -12 -22 6 -6 10 10 15 20 12 24 -4 3 -12 -5 -18
-18z"/>
<path d="M6163 2515 c-3 -9 -3 -18 -1 -21 3 -3 8 4 11 16 6 23 -1 27 -10 5z"/>
<path d="M8045 2760 c3 -5 13 -10 21 -10 8 0 14 5 14 10 0 6 -9 10 -21 10 -11
0 -17 -4 -14 -10z"/>
<path d="M9105 2620 c-3 -6 0 -13 9 -16 22 -8 59 -1 64 14 5 15 -64 17 -73 2z"/>
<path d="M8250 2316 c0 -9 5 -16 10 -16 6 0 10 4 10 9 0 6 -4 13 -10 16 -5 3
-10 -1 -10 -9z"/>
<path d="M7822 2258 c-6 -8 -9 -18 -5 -21 9 -9 143 -7 167 2 30 11 8 19 -75
27 -59 5 -77 3 -87 -8z"/>
<path d="M8190 2250 c0 -5 12 -10 26 -10 14 0 23 4 19 10 -3 6 -15 10 -26 10
-10 0 -19 -4 -19 -10z"/>
<path d="M8935 2221 c-3 -5 -1 -12 5 -16 5 -3 10 1 10 9 0 18 -6 21 -15 7z"/>
<path d="M7860 2070 c0 -6 26 -10 59 -10 33 0 63 5 66 10 4 6 -18 10 -59 10
-37 0 -66 -4 -66 -10z"/>
<path d="M9161 2054 c0 -11 3 -14 6 -6 3 7 2 16 -1 19 -3 4 -6 -2 -5 -13z"/>
<path d="M7956 2035 c4 -8 8 -15 10 -15 2 0 4 7 4 15 0 8 -4 15 -10 15 -5 0
-7 -7 -4 -15z"/>
<path d="M8423 2003 c9 -2 23 -2 30 0 6 3 -1 5 -18 5 -16 0 -22 -2 -12 -5z"/>
<path d="M3640 2370 c0 -25 5 -40 13 -40 6 0 21 -3 32 -6 16 -4 21 0 22 18 1
16 -8 29 -33 45 l-34 22 0 -39z"/>
<path d="M3780 2370 c0 -5 5 -10 10 -10 6 0 10 5 10 10 0 6 -4 10 -10 10 -5 0
-10 -4 -10 -10z"/>
<path d="M3876 2354 c-3 -9 -6 -27 -6 -41 0 -39 25 -22 28 20 3 37 -11 50 -22
21z"/>
<path d="M3738 2323 c7 -3 16 -2 19 1 4 3 -2 6 -13 5 -11 0 -14 -3 -6 -6z"/>
<path d="M3867 2213 c-12 -11 -7 -33 7 -33 12 0 26 20 26 36 0 7 -26 5 -33 -3z"/>
<path d="M3760 2194 c0 -8 5 -12 10 -9 6 4 8 11 5 16 -9 14 -15 11 -15 -7z"/>
<path d="M3383 2173 c19 -3 27 -10 27 -24 0 -24 36 -26 69 -3 32 23 14 31 -62
31 -34 0 -50 -2 -34 -4z"/>
<path d="M3672 2055 c0 -16 2 -22 5 -12 2 9 2 23 0 30 -3 6 -5 -1 -5 -18z"/>
<path d="M3717 2043 c-17 -16 -5 -33 22 -33 34 0 60 24 36 34 -9 3 -15 0 -15
-10 0 -14 -2 -14 -16 0 -18 18 -18 18 -27 9z"/>
<path d="M3532 1993 c2 -12 14 -19 34 -21 25 -2 33 1 37 17 5 19 1 21 -35 21
-32 0 -39 -3 -36 -17z"/>
<path d="M3364 1986 c-12 -31 1 -51 30 -49 22 2 26 -1 18 -9 -16 -16 -15 -25
3 -32 21 -8 63 13 70 36 4 10 13 18 21 18 8 0 14 9 14 21 0 19 -4 21 -32 15
-18 -3 -39 -14 -45 -23 -14 -18 -15 -18 -32 15 -13 25 -39 29 -47 8z"/>
<path d="M3440 1880 c0 -5 7 -10 16 -10 8 0 12 5 9 10 -3 6 -10 10 -16 10 -5
0 -9 -4 -9 -10z"/>
<path d="M3870 1645 c0 -9 5 -15 11 -13 6 2 11 8 11 13 0 5 -5 11 -11 13 -6 2
-11 -4 -11 -13z"/>
<path d="M3766 1641 c-8 -12 21 -34 34 -26 17 11 11 35 -9 35 -11 0 -22 -4
-25 -9z"/>
<path d="M6231 2140 c-8 -4 -21 -6 -29 -2 -10 3 -13 1 -8 -6 9 -15 43 -16 51
-1 10 15 2 20 -14 9z"/>
<path d="M5720 2130 c0 -5 5 -10 10 -10 6 0 10 5 10 10 0 6 -4 10 -10 10 -5 0
-10 -4 -10 -10z"/>
<path d="M5694 1993 c3 -26 10 -49 15 -52 5 -4 10 -15 12 -26 3 -13 14 -21 31
-23 l26 -3 0 75 1 76 -46 0 -46 0 7 -47z"/>
<path d="M3230 1700 c0 -5 7 -10 15 -10 8 0 15 5 15 10 0 6 -7 10 -15 10 -8 0
-15 -4 -15 -10z"/>
<path d="M3275 1689 c-10 -15 3 -25 16 -12 7 7 7 13 1 17 -6 3 -14 1 -17 -5z"/>
<path d="M9688 1283 c7 -3 16 -2 19 1 4 3 -2 6 -13 5 -11 0 -14 -3 -6 -6z"/>
<path d="M8154 1118 c-4 -6 -3 -8 4 -4 5 3 13 0 15 -6 3 -8 6 -6 6 5 1 19 -14
23 -25 5z"/>
<path d="M7018 173 c7 -3 16 -2 19 1 4 3 -2 6 -13 5 -11 0 -14 -3 -6 -6z"/>
<path d="M8000 480 c0 -13 7 -20 20 -20 24 0 27 25 4 34 -23 9 -24 8 -24 -14z"/>
<path d="M8440 306 c0 -10 33 -36 46 -36 22 0 16 16 -11 28 -28 13 -35 14 -35
8z"/>
<path d="M8528 268 c5 -5 16 -8 23 -6 8 3 3 7 -10 11 -17 4 -21 3 -13 -5z"/>
<path d="M6551 5348 c13 -21 27 -38 32 -38 15 0 6 17 -24 46 l-32 29 24 -37z"/>
<path d="M6430 5361 c0 -25 90 -97 104 -83 12 11 5 21 -44 56 -53 38 -60 41
-60 27z"/>
<path d="M6546 5258 c-9 -34 -7 -58 4 -58 5 0 9 10 9 23 -1 12 2 30 6 40 4 9
3 17 -3 17 -5 0 -12 -10 -16 -22z"/>
<path d="M6520 5155 c-15 -18 -6 -45 15 -45 8 0 15 3 15 8 0 4 3 17 6 30 7 26
-16 31 -36 7z"/>
<path d="M7888 4585 c2 -14 9 -25 14 -25 6 0 7 7 4 16 -3 9 -6 20 -6 25 0 5
-4 9 -9 9 -4 0 -6 -11 -3 -25z"/>
<path d="M7790 4525 c0 -8 5 -15 10 -15 6 0 10 7 10 15 0 8 -4 15 -10 15 -5 0
-10 -7 -10 -15z"/>
<path d="M9495 4076 c-77 -6 -146 -15 -152 -19 -10 -6 -13 -63 -13 -228 l0
-221 88 6 c48 4 134 8 190 11 62 2 112 9 124 17 18 12 20 28 25 231 l6 217
-64 -1 c-35 -1 -127 -7 -204 -13z"/>
<path d="M9908 3523 c-33 -3 -48 -9 -52 -21 -20 -69 -76 -376 -69 -381 4 -3
54 -5 111 -3 l102 3 0 205 0 204 -22 -2 c-13 -1 -44 -3 -70 -5z"/>
<path d="M5489 3336 c0 0 -3 -83 -5 -183 l-5 -183 255 0 256 0 0 180 c0 99 -3
181 -7 181 -10 2 -493 7 -494 5z"/>
<path d="M5337 3250 c3 -11 7 -20 9 -20 2 0 4 9 4 20 0 11 -4 20 -9 20 -5 0
-7 -9 -4 -20z"/>
<path d="M2056 3199 c-2 -13 -9 -78 -16 -144 -10 -109 -9 -121 6 -132 9 -7 21
-10 26 -7 10 6 6 289 -4 300 -4 3 -9 -4 -12 -17z"/>
<path d="M5277 3175 c-20 -14 -37 -32 -37 -40 0 -7 -3 -22 -6 -32 -3 -11 -2
-14 3 -7 4 6 16 14 27 17 16 6 17 4 11 -15 -14 -45 -17 -78 -7 -78 17 0 29 24
46 88 26 103 23 107 -37 67z"/>
<path d="M3593 3073 c9 -2 25 -2 35 0 9 3 1 5 -18 5 -19 0 -27 -2 -17 -5z"/>
<path d="M5225 3060 c-4 -12 -5 -24 -2 -27 3 -2 8 5 12 17 4 12 5 24 2 27 -3
2 -8 -5 -12 -17z"/>
<path d="M5240 2890 c0 -5 5 -10 11 -10 5 0 7 5 4 10 -3 6 -8 10 -11 10 -2 0
-4 -4 -4 -10z"/>
<path d="M2024 2853 c-20 -3 -46 -20 -76 -51 -38 -39 -50 -60 -66 -122 -31
-116 -33 -137 -16 -154 12 -13 13 -19 2 -37 -10 -17 -10 -23 0 -26 19 -7 14
-27 -13 -51 -33 -28 -32 -39 4 -40 l28 -1 12 127 c16 186 22 222 33 222 6 0 8
-14 3 -36 -6 -34 -5 -36 14 -31 12 3 21 1 21 -4 0 -5 23 -9 50 -9 43 0 50 3
50 20 0 13 -7 20 -20 20 -27 0 -25 18 3 22 18 2 22 10 23 42 1 33 -3 40 -28
50 l-29 13 25 17 c24 15 36 38 19 34 -5 0 -22 -3 -39 -5z"/>
<path d="M1992 1900 c3 -38 3 -70 1 -70 -2 0 -13 5 -24 10 -15 8 -19 7 -19 -5
0 -27 38 -55 75 -55 l35 0 0 95 0 95 -36 0 -37 0 5 -70z"/>
<path d="M412 1490 c0 -14 2 -19 5 -12 2 6 2 18 0 25 -3 6 -5 1 -5 -13z"/>
<path d="M9757 1495 c-4 -8 -16 -15 -27 -15 -27 0 -26 -19 3 -29 31 -12 69 7
65 33 -4 25 -33 33 -41 11z"/>
<path d="M344 1290 c-3 -2 -29 -8 -57 -11 -42 -5 -34 -7 41 -7 59 1 92 4 89
11 -3 10 -64 16 -73 7z"/>
<path d="M1570 1290 c-24 -5 3 -8 81 -9 64 0 138 -4 164 -8 36 -5 47 -3 43 7
-4 14 -229 23 -288 10z"/>
<path d="M1912 1210 c1 -79 1 -79 -29 -78 -73 3 -346 -3 -341 -7 2 -3 42 -7
88 -9 45 -3 87 -9 93 -15 8 -8 5 -11 -8 -12 -42 -2 31 -17 88 -18 32 -1 74 -8
95 -17 25 -10 51 -13 80 -9 38 6 45 11 72 58 30 52 39 97 20 97 -5 0 -10 -15
-10 -34 0 -20 -6 -36 -14 -39 -22 -9 -124 79 -129 111 -3 15 -5 2 -5 -28z"/>
<path d="M0 1114 c0 -15 10 -16 83 -11 45 4 136 7 202 8 76 0 113 4 100 9 -11
5 -102 9 -202 9 -164 1 -183 -1 -183 -15z"/>
<path d="M1578 983 c-38 -15 -38 -15 -38 -75 l0 -59 185 2 c135 2 185 6 189
15 7 19 -4 24 -48 24 -35 1 -45 5 -66 35 -47 66 -144 91 -222 58z"/>
<path d="M180 960 c-8 -4 -35 -14 -60 -21 -25 -7 -49 -16 -55 -19 -5 -4 -22
-10 -37 -14 -23 -5 -28 -12 -28 -37 0 -24 3 -30 16 -25 9 3 18 6 21 6 3 0 0 6
-6 14 -9 11 3 18 61 39 40 15 97 29 126 33 55 7 67 18 30 28 -30 8 -50 7 -68
-4z"/>
<path d="M355 950 c3 -5 19 -10 36 -10 16 0 29 5 29 10 0 6 -16 10 -36 10 -21
0 -33 -4 -29 -10z"/>
<path d="M3598 928 c9 -9 15 -9 24 0 9 9 7 12 -12 12 -19 0 -21 -3 -12 -12z"/>
<path d="M3505 910 c-16 -7 -17 -9 -3 -9 9 -1 20 4 23 9 7 11 7 11 -20 0z"/>
<path d="M3388 903 c6 -2 18 -2 25 0 6 3 1 5 -13 5 -14 0 -19 -2 -12 -5z"/>
<path d="M295 875 c-16 -8 -41 -14 -55 -15 -14 0 -32 -5 -40 -10 -11 -8 8 -10
63 -8 62 2 80 6 88 19 5 10 9 20 9 23 0 10 -34 5 -65 -9z"/>
<path d="M3095 860 c-4 -6 7 -10 27 -10 25 0 29 3 18 10 -19 13 -37 13 -45 0z"/>
<path d="M5984 859 c-3 -5 6 -9 20 -9 31 0 34 6 6 13 -11 3 -23 1 -26 -4z"/>
<path d="M7582 840 c0 -14 2 -19 5 -12 2 6 2 18 0 25 -3 6 -5 1 -5 -13z"/>
<path d="M0 774 c0 -32 4 -44 12 -41 7 2 12 12 12 21 -1 9 2 16 7 16 5 0 3 11
-3 25 -17 38 -28 30 -28 -21z"/>
<path d="M1558 766 c-26 -19 -22 -36 10 -37 15 0 38 -2 52 -5 87 -14 195 -8
214 12 27 27 20 47 -14 40 -16 -3 -44 -9 -61 -12 -23 -5 -30 -3 -25 5 4 6 2
11 -3 11 -6 0 -11 -4 -11 -10 0 -5 -11 -10 -25 -10 -14 0 -25 5 -25 10 0 6
-12 10 -27 9 -16 0 -22 -3 -15 -6 19 -8 3 -23 -25 -23 -18 0 -24 4 -19 15 7
18 -3 19 -26 1z"/>
<path d="M0 640 c0 -18 6 -20 63 -19 34 1 52 4 40 6 -13 2 -23 9 -23 15 0 6
-10 8 -25 4 -14 -4 -25 -2 -25 4 0 5 -7 10 -15 10 -8 0 -15 -9 -15 -20z"/>
<path d="M1697 654 c-17 -18 -4 -25 41 -22 26 2 47 8 47 13 0 12 -77 19 -88 9z"/>
<path d="M173 628 c4 -14 45 -13 94 2 22 7 16 8 -35 9 -47 1 -63 -2 -59 -11z"/>
<path d="M348 613 c7 -3 16 -2 19 1 4 3 -2 6 -13 5 -11 0 -14 -3 -6 -6z"/>
<path d="M8856 539 c7 -11 84 -49 99 -49 8 0 14 5 13 12 -2 7 4 13 12 14 44 4
45 4 25 16 -21 13 -156 18 -149 7z"/>
<path d="M3208 479 c-29 -16 -21 -29 17 -29 33 0 34 1 23 20 -15 23 -16 23
-40 9z"/>
<path d="M2778 472 c-17 -3 -22 -16 -21 -49 1 -7 -8 -13 -18 -13 -10 0 -19 -4
-19 -8 0 -5 28 -7 63 -5 130 8 168 25 82 37 -25 4 -50 15 -57 24 -7 10 -21 16
-30 14z"/>
<path d="M2005 426 l-50 -12 55 -11 c55 -11 75 -4 67 21 -5 14 -17 15 -72 2z"/>
<path d="M2120 404 l-25 -14 36 0 c24 0 39 5 43 15 7 19 -19 18 -54 -1z"/>
<path d="M1660 400 c-21 -7 -18 -8 18 -9 26 -1 41 3 37 9 -7 11 -19 11 -55 0z"/>
<path d="M2632 329 c-250 -4 -457 -10 -460 -14 -9 -9 976 6 1008 16 18 5 7 7
-35 7 -33 -1 -264 -5 -513 -9z"/>
<path d="M9638 273 c7 -3 16 -2 19 1 4 3 -2 6 -13 5 -11 0 -14 -3 -6 -6z"/>
<path d="M9675 180 c-3 -5 -1 -10 4 -10 6 0 11 5 11 10 0 6 -2 10 -4 10 -3 0
-8 -4 -11 -10z"/>
<path d="M5658 143 c7 -3 16 -2 19 1 4 3 -2 6 -13 5 -11 0 -14 -3 -6 -6z"/>
<path d="M9608 83 c7 -3 16 -2 19 1 4 3 -2 6 -13 5 -11 0 -14 -3 -6 -6z"/>
<path d="M4920 70 c0 -5 4 -10 9 -10 6 0 13 5 16 10 3 6 -1 10 -9 10 -9 0 -16
-4 -16 -10z"/>
</g>
</svg>
